<?xml version="1.0" encoding="utf-8"?>
<!-- Generator: Adobe Illustrator 19.1.1, SVG Export Plug-In . SVG Version: 6.00 Build 0)  -->
<svg version="1.1" id="Layer_1" xmlns="http://www.w3.org/2000/svg" xmlns:xlink="http://www.w3.org/1999/xlink" x="0px" y="0px"
	 viewBox="-124 -100 500 218.1" style="enable-background:new -124 -100 500 218.1;" xml:space="preserve">
<style type="text/css">
	.st0{fill:#CDEDFC;}
	.st1{fill:#2499CE;}
	.st2{fill:#025F93;}
	.st3{opacity:0.4;}
	.st4{fill:#5084DA;}
	.st5{opacity:0.2278;}
	.st6{opacity:0.5;fill:#605ACA;}
	.st7{fill:#4CA1FF;}
	.st8{fill:#71BE72;}
	.st9{fill:none;stroke:#00AD9F;stroke-linecap:round;stroke-linejoin:round;stroke-miterlimit:10;}
	.st10{opacity:0.31;fill:none;stroke:#0B43A4;stroke-linecap:round;stroke-linejoin:round;stroke-miterlimit:10;}
	.st11{fill:#4A84D8;}
	.st12{opacity:0.5;}
	.st13{fill:#89CC89;}
	.st14{opacity:0.37;fill:#5A4FD1;}
	.st15{fill:#0071BC;}
	.st16{fill:#F8FDFF;}
	.st17{clip-path:url(#SVGID_2_);fill:#0A83C6;}
	.st18{fill:#0A83C6;}
	.st19{opacity:9.000000e-002;}
	.st20{opacity:0.3;fill:#94EBFF;}
	.st21{opacity:0.5;fill:#94EBFF;}
	.st22{fill:#C6741A;}
	.st23{opacity:0.4;fill:#F9714E;}
	.st24{fill:#ED8B00;}
	.st25{opacity:0.4;fill:#FFB255;}
	.st26{fill:#FFC2D3;}
	.st27{fill:#52586E;}
	.st28{opacity:0.3;}
	.st29{opacity:0.5;fill:#2E2C84;}
	.st30{fill:#8FC2FF;}
	.st31{opacity:0.3;fill:#8FC2FF;}
	.st32{opacity:0.3;fill:#FFC2D3;}
	.st33{opacity:0.5;fill:#FFC87C;}
	.st34{fill:#F9ACC8;}
	.st35{opacity:0.1;}
	.st36{fill:#FFB255;}
	.st37{fill:#F9714E;}
	.st38{fill:#568EDB;}
	.st39{fill:#5E9CE4;}
	.st40{opacity:0.16;}
	.st41{fill:#4E84D9;}
	.st42{fill:#53AA53;}
	.st43{fill:none;stroke:#086356;stroke-linecap:round;stroke-linejoin:round;stroke-miterlimit:10;}
	.st44{fill:#087EB2;}
	.st45{fill:#209BD1;}
	.st46{clip-path:url(#SVGID_4_);fill:#ED8B00;}
	.st47{clip-path:url(#SVGID_6_);fill:#ED8B00;}
	.st48{fill:#0C84C6;}
	.st49{opacity:0.75;fill:#FFFFFF;enable-background:new    ;}
	.st50{fill:none;stroke:#FFFFFF;stroke-width:2;stroke-miterlimit:10;}
	.st51{fill:#299FD3;}
	.st52{fill:#0470A0;}
	.st53{fill:#3C595E;}
	.st54{fill:#FFFFFF;}
	.st55{fill:#F9A23A;}
	.st56{fill:none;stroke:#71BE72;stroke-width:2;stroke-miterlimit:10;}
	.st57{clip-path:url(#SVGID_8_);fill:#0A83C6;}
	.st58{fill:none;stroke:#FFFFFF;stroke-miterlimit:10;}
</style>
<g>
	<g>
		<path class="st0" d="M272.1-20.6c4.6,7.2,11.3,14,11.9,22.1c0.9,13-13.9,22.9-20,35c-7.4,14.8-1.2,32.3-7.8,47.4
			c-4.8,10.9-16.5,19.7-30.3,22.6c-10.3,2.2-21.2,1.2-31.8,1.3c-30.3,0.3-60.4,9.2-90.3,5.1c-14.7-2-28.7-7.1-43.5-8.8
			c-17.8-2-38.4,0.4-51.1-9.9c-17.7-14.4-4.6-41-17.9-58.3c-4.3-5.6-11.2-9.9-13.5-16.3c-2.7-7.4,1.7-15.2,7.1-21.5
			C-9.6-8.2-2.9-14,0.1-21.3c2.7-6.6,1-13.9-2.2-20.3c-5-9.9,9-32.5,36.8-30.8c12.8,0.8,18.5-11.9,32.5-15.4c16-4,36.1-0.8,47.9,2.6
			c12,3.4,26.8,5.2,33.7-3.5c9.7-12.3,38.7-14.2,51.6,5.8c4.7,7.3,9,13,19.1,12.4C274.3-73.6,265.2-31.3,272.1-20.6z M122.8-88.2
			c0,1.7,0,4.6,8.6,4.1c2.6-0.1,4.8-1.4,4.8-3c0-1.7-2.2-3-4.8-3C128.8-90.2,122.8-90.8,122.8-88.2z M37.8-80
			c-0.3,0.1-0.4,0.4-0.6,0.6c-0.6,0.7-1.5,1.2-2.5,1.5c-0.6,0.2-1.2,0.4-1.6,0.7c-0.7,0.6-0.6,1.7,0.2,2.2c0.6,0.4,1.5,0.5,2.3,0.4
			c3-0.1,5.9-1.1,8.3-2.6C46.8-79.3,39.4-80.8,37.8-80z M29.6-76.2c-1-0.6-2.3-0.2-3.3,0.2c-0.2,0.1-0.4,0.2-0.5,0.4
			c-0.1,0.4,0.5,0.7,1,0.8c0.8,0.2,1.6,0.4,2.4,0.2C29.8-74.7,30.6-75.6,29.6-76.2z M174.6,114.2c-0.3,0.3-0.7,0.6-0.9,0.9
			c-0.6,1,0,2.3,1.2,2.8c0.6,0.2,1.3,0.2,2,0.2c5.8-0.1,12-0.2,16.6-3.1c0.6-0.3,1.1-0.8,1-1.4c-0.1-0.7-1.1-1-2-1.1
			C186.9,111.6,179.2,110.5,174.6,114.2z M65.3,106.6c-5-0.6-13-1.4-13,2.1c0,1.3,7.1,2.6,8.2,2.8c3.6,0.7,7,1.9,10.5,3
			c6.6,2.1,11.8-0.7,6.6-3.9C73.4,108,69.3,107.1,65.3,106.6z"/>
	</g>
</g>
<g>
	<g>
		<path class="st1" d="M283,66.6l-1.5,2l0,0l2.3-0.3v1l-2.3-0.2l0,0l1.5,1.8l-1,0.6l-0.9-2.2l0,0l-1,2.2l-0.9-0.6l1.5-2l0,0
			l-2.3,0.3v-1l2.3,0.3l0,0l-1.5-2L280,66l0.9,2.2l0,0l0.9-2.2L283,66.6z"/>
		<path class="st1" d="M289.4,66.6l-1.5,2l0,0l2.3-0.3v1l-2.3-0.2l0,0l1.5,1.8l-1,0.6l-0.9-2.2l0,0l-1,2.2l-0.9-0.6l1.5-2l0,0
			l-2.3,0.3v-1l2.3,0.3l0,0l-1.5-2l0.9-0.6l0.9,2.2l0,0l0.9-2.2L289.4,66.6z"/>
		<path class="st1" d="M295.9,66.6l-1.5,2l0,0l2.3-0.3v1l-2.3-0.2l0,0l1.5,1.8l-1,0.6l-0.9-2.2l0,0l-1,2.2l-0.9-0.6l1.5-2l0,0
			l-2.3,0.3v-1l2.3,0.3l0,0l-1.5-2l0.9-0.6l0.9,2.2l0,0l0.9-2.2L295.9,66.6z"/>
		<path class="st1" d="M302.4,66.6l-1.5,2l0,0l2.3-0.3v1l-2.3-0.2l0,0l1.5,1.8l-1,0.6l-0.9-2.2l0,0l-1,2.2l-0.9-0.6l1.5-2l0,0
			l-2.3,0.3v-1l2.3,0.3l0,0l-1.5-2l0.9-0.6l0.9,2.2l0,0l0.9-2.2L302.4,66.6z"/>
		<path class="st1" d="M308.9,66.6l-1.5,2l0,0l2.3-0.3v1l-2.3-0.2l0,0l1.5,1.8l-1,0.6l-0.9-2.2l0,0l-1,2.2l-0.9-0.6l1.5-2l0,0
			l-2.3,0.3v-1l2.3,0.3l0,0l-1.5-2l0.9-0.6l0.9,2.2l0,0l0.9-2.2L308.9,66.6z"/>
		<path class="st1" d="M315.3,66.6l-1.5,2l0,0l2.3-0.3v1l-2.3-0.2l0,0l1.5,1.8l-1,0.6l-0.9-2.2l0,0l-1,2.2l-0.9-0.6l1.5-2l0,0
			l-2.3,0.3v-1l2.3,0.3l0,0l-1.5-2l0.9-0.6l0.9,2.2l0,0l0.9-2.2L315.3,66.6z"/>
	</g>
</g>
<path class="st2" d="M275.9-18.7c0.1-1.2,0.1-2.5,0.1-3.7c-0.1-1.3-0.4-2.5-0.7-3.7l-4.5,1.1c-0.5-1.3-1.1-2.4-1.8-3.4l3.4-3.1
	c-1.5-2-3.4-3.6-5.7-4.7l-2.4,3.9c-1.2-0.6-2.4-0.9-3.8-1.2l0.2-4.6c-1.2-0.1-2.5-0.1-3.7-0.1c-1.3,0.1-2.5,0.4-3.7,0.7l1.1,4.5
	c-1.3,0.5-2.4,1.1-3.4,1.8l-3.1-3.4c-2,1.5-3.6,3.4-4.7,5.7l3.9,2.4c-0.6,1.2-0.9,2.4-1.2,3.8l-4.6-0.2c-0.1,1.2-0.1,2.5-0.1,3.7
	c0.1,1.3,0.4,2.5,0.7,3.7l4.5-1.1c0.5,1.3,1.1,2.4,1.8,3.4l-3.4,3.1c1.5,2,3.4,3.6,5.7,4.7l2.4-3.9c1.2,0.6,2.4,0.9,3.8,1.2
	l-0.2,4.6c1.2,0.1,2.5,0.1,3.7,0.1c1.3-0.1,2.5-0.4,3.7-0.7l-1.1-4.5c1.3-0.5,2.4-1.1,3.4-1.8l3.1,3.4c2-1.5,3.6-3.4,4.7-5.7
	l-3.9-2.4c0.6-1.2,0.9-2.4,1.2-3.8L275.9-18.7z M259.3-13.7c-3.9,0.4-7.3-2.5-7.7-6.4s2.5-7.3,6.4-7.7c3.9-0.4,7.3,2.5,7.7,6.4
	C266.1-17.5,263.3-14.1,259.3-13.7z"/>
<g>
	<g>
		<g>
			<path class="st2" d="M219.3,16.9c0,0,10.8-1,21-5.2c0.3-0.1,0.5,2.1,0.5,2.1s1.5-2.9,2-3.2c5.5-2.6,10.6-6.2,13.3-11.3
				c0,0,1.3,30.9-38.3,37.7L219.3,16.9z"/>
		</g>
		<g>
			<path class="st2" d="M232.5,52.1c0,0,13.1,6.9,38.7,8.1c0,0-17.4,15.9-57.3,10.4l1.3-18.1L232.5,52.1z"/>
		</g>
		<g>
			<path class="st1" d="M214.1,34.5c0,0,5.9-3.8,15.5-7c0.4-0.1,1.2,2.1,1.2,2.1s1.3-2.9,2-3.2c11.5-3.4,27.1-5.7,44-0.9
				c0,0-5.1,7.1-15.6,14.9c-0.4,0.3-3.4,0.1-3.4,0.1s1.2,1.5,0.8,1.8c-9.9,6.9-24.1,14-42.5,16.8L214.1,34.5z"/>
		</g>
		<g class="st3">
			<g>
				<path class="st4" d="M276.9,25.6c-4.9,3.2-10.1,6-15.4,8.5c-5.3,2.6-10.7,4.9-16.2,6.9c-2.7,1.1-5.6,1.9-8.3,2.9l-4.2,1.3
					c-0.7,0.2-1.4,0.4-2.1,0.6l-2.1,0.5c-5.7,1.5-11.5,2.6-17.3,3.4l4.3-0.9l2.2-0.4c0.7-0.2,1.4-0.3,2.1-0.5l4.3-1l4.2-1.2
					c2.8-0.8,5.6-1.7,8.4-2.5c2.8-1,5.6-1.9,8.3-2.9c5.5-2,10.9-4.3,16.2-6.7c2.7-1.2,5.3-2.5,7.9-3.8
					C271.7,28.4,274.3,27,276.9,25.6z"/>
			</g>
			<g>
				<path class="st4" d="M241,42.1c1.1-1,2.2-2.1,3.2-3.1c1-1,2.1-2.1,3.1-3.2c1-1.1,1.9-2.2,2.9-3.4c0.9-1.2,1.8-2.4,2.6-3.6
					c-0.5,1.4-1.2,2.8-2,4c-0.8,1.3-1.8,2.4-2.8,3.5C245.9,38.6,243.6,40.6,241,42.1z"/>
			</g>
			<g>
				<path class="st4" d="M225.2,46.8c1.2-0.8,2.3-1.7,3.3-2.6c1-0.9,2-1.9,2.9-3c0.9-1.1,1.7-2.2,2.4-3.4c0.7-1.2,1.3-2.4,1.9-3.7
					c-0.3,1.4-0.7,2.8-1.3,4.1c-0.6,1.3-1.4,2.5-2.3,3.6c-0.9,1.1-2,2.1-3.1,3C227.8,45.6,226.5,46.4,225.2,46.8z"/>
			</g>
			<g>
				<path class="st4" d="M241,42.1c2.1,0.1,4.1,0.1,6.1,0c1-0.1,2-0.2,3-0.3c1-0.1,2-0.4,3-0.5c-0.9,0.5-1.9,0.9-2.9,1.2
					c-1,0.3-2,0.4-3.1,0.5c-1,0.1-2.1,0-3.1-0.1C243,42.7,242,42.5,241,42.1z"/>
			</g>
			<g>
				<path class="st4" d="M225.5,46.9c1.2,0.1,2.5,0.3,3.7,0.4c1.2,0.1,2.4,0.2,3.6,0.3c1.2,0.1,2.4,0.1,3.6,0
					c1.2-0.1,2.4-0.2,3.7-0.4c-1.1,0.5-2.4,0.9-3.6,1c-1.2,0.2-2.5,0.2-3.7,0.2C230.3,48.2,227.8,47.8,225.5,46.9z"/>
			</g>
		</g>
		<g class="st5">
			<g>
				<path class="st6" d="M252.1,7.4c-1.1,2.9-2.9,5.4-5,7.7c-2.1,2.3-4.6,4.1-7.3,5.7l-2,1.1c-0.7,0.4-1.4,0.6-2.1,1
					c-1.4,0.6-2.9,1.1-4.3,1.6c-0.7,0.3-1.5,0.4-2.2,0.6l-2.2,0.5c-1.5,0.2-3,0.5-4.6,0.7c1.5-0.4,3-0.7,4.5-1.1l2.2-0.6
					c0.7-0.2,1.5-0.4,2.2-0.7c1.4-0.6,2.9-1,4.2-1.7c0.7-0.3,1.4-0.6,2.1-1l2-1.1c2.6-1.5,5.1-3.3,7.3-5.4c0.5-0.5,1.1-1.1,1.6-1.6
					c0.2-0.3,0.5-0.6,0.8-0.9l0.7-0.9C250.5,10,251.4,8.8,252.1,7.4z"/>
			</g>
		</g>
		<g>
			<g>
				<path class="st7" d="M262.8,62.4c-1.8,0.3-3.6,0.6-5.4,0.8c-1.8,0.2-3.6,0.3-5.5,0.4c-3.7,0.2-7.3,0.1-11-0.2
					c-1.8-0.2-3.6-0.4-5.5-0.7c-1.8-0.3-3.6-0.6-5.4-1.1c-3.5-0.9-7-2.2-10.1-4.1c1.6,0.8,3.3,1.5,5.1,2c1.7,0.6,3.5,1,5.2,1.4
					c3.5,0.8,7.1,1.3,10.8,1.5c3.6,0.3,7.3,0.4,10.9,0.4C255.5,62.9,259.1,62.8,262.8,62.4z"/>
			</g>
			<g>
				<path class="st7" d="M245.6,68.8c-2.4,0.2-4.8-0.3-7-1.4c-1.1-0.6-2.1-1.3-2.9-2.2c-0.9-0.9-1.4-2-1.8-3.1
					c0.7,1,1.4,1.9,2.3,2.6c0.9,0.7,1.8,1.4,2.8,1.9c1,0.5,2.1,0.9,3.2,1.3C243.3,68.3,244.5,68.6,245.6,68.8z"/>
			</g>
			<g>
				<path class="st7" d="M236.1,69.4c-2.4-0.3-4.6-1.4-6.5-2.9c-0.9-0.8-1.8-1.7-2.4-2.8c-0.6-1-1-2.3-1.1-3.4
					c0.4,1.1,1,2.1,1.6,3.1c0.7,0.9,1.5,1.7,2.4,2.5c0.9,0.7,1.9,1.4,2.9,1.9C233.9,68.4,235,68.9,236.1,69.4z"/>
			</g>
		</g>
	</g>
	<g>
		<path class="st8" d="M131.5,95.5c-4-4.6-10-7.3-16.1-7.2c-4.5,0.1-8.9,1.6-13.4,1.3c-4.7-0.3-9.3-2.6-12.2-6.3
			c-3-3.7-4.3-8.6-3.7-13.3c0.5-3.5,2.4-7.1,5.6-8.7c1.8-0.9,3.8-1.1,5.7-0.9c1.8,0.2,3.5,0.6,5.1,1.4c3.7,1.6,6.9,4.6,9.5,7.8
			c2.3,2.9,7.7,7.2,11.3,10c2.1,1.6,3.7,2.7,3.7,2.7C129.6,84.6,129.7,92.5,131.5,95.5z"/>
		<path class="st9" d="M92.2,71.3c11.3,3.2,23.7,7.8,32.5,15.5"/>
	</g>
	<g>
		<path class="st1" d="M164.8,69.7c-0.2,1.9-0.6,3.8-1.5,5.5c-0.6,1.2-1.5,2.2-2.4,3.1c-0.5,0.5-1,0.9-1.6,1.3
			c-2.1,1.6-4.4,2.8-6.8,3.6c-3.5,1.1-7.3,1.3-10.5,3.3c-1.5,0.9-2.8,2.2-3.8,3.7c-0.6,0.9-1.1,1.9-1.5,3l0-3.2
			c0.3-3.5,0.7-7.1,2-10.4c0.8-2.2,2.1-4.2,3.4-6.1c2.1-3.1,4.6-5.9,7.4-8.3c2.3-1.9,4.9-3.6,7.7-4c2.8-0.4,5.7,0.6,7,3.1
			C164.9,65.9,165,67.8,164.8,69.7z"/>
		<path class="st10" d="M138.6,87c2-4.7,5.4-8.8,9.6-11.6c2.6-1.7,5.5-2.9,8.1-4.5c2.7-1.6,5.2-3.8,6.5-6.7"/>
	</g>
	<g>
		<path class="st8" d="M134.3,89.9c5-4.9,12-7.2,18.9-8.2c5.8-0.8,11.8-0.9,17.2,1.3c1.7,0.7,3.4,1.6,4.4,3.2c1,1.5,1.1,3.7-0.1,5.1
			c-1,1.1-2.7,1.4-4.2,1.5c-5.1,0.2-10-1.3-15-2.3c-8.5-1.8-17.8-2.2-25.6,1.8"/>
		<path class="st9" d="M140.5,87.3c10.3-4.3,25.1-2.9,31.6,1.5"/>
	</g>
	<g>
		<path class="st11" d="M19,37c-4.6-2.2-6.9-8.2-10.7-9.4c-4.7-1.6-6,3.6-13.7,2.3c-6.4-1.1-8.4-8.3-19.1-6.1
			c-3.3,0.7-5.4,3.4-4.2,6.8c0.9,3.3,5.5,5.4,8.2,7.1c2.4,1.4,4.5,2.1,5.9,4.6c0,0,0,0.1,0,0.1c1,2,0.6,3.9,2.8,5.4
			c5.2,3.8,11.8-2.3,17.7-2.1c4.2,0.1,4.1,4.5,9.1,5.7c5,1.3,3.4-3.2,13.9,0.8c0.4,0.1,0.8,0,0.9-0.4l0,0c0.1-0.3,0-0.6-0.2-0.8
			C22.5,43.3,25.9,40.3,19,37z"/>
		<path class="st8" d="M19,37c-4.6-2.2-6.9-8.2-10.7-9.4c-4.7-1.6-6,3.6-13.7,2.3c-6.4-1.1-8.4-8.3-19.1-6.1
			c-3.3,0.7-5.4,3.4-4.2,6.8c0.9,3.3,5.5,5.4,8.2,7.1c2.4,1.4,4.5,2.1,5.9,4.6c0,0,0,0.1,0,0.1c1,2,0.6,3.9,2.8,5.4
			c5.2,3.8,11.8-2.3,17.7-2.1c4.2,0.1,4.1,4.5,9.1,5.7c5,1.3,3.4-3.2,13.9,0.8c0.4,0.1,0.8,0,0.9-0.4l0,0c0.1-0.3,0-0.6-0.2-0.8
			C22.5,43.3,25.9,40.3,19,37z"/>
		<g class="st12">
			<g>
				<path class="st7" d="M25,46.8c-4-2.1-6.4-6.6-10.7-8.2c-2.2-0.8-3.9-0.2-6.1-0.1c-2.7,0.2-3.9-1.8-6.1-2.7
					c-2.2-1-4.4,0.4-6.7-0.1c-2.3-0.5-4.2-2.3-6-3.7c-3.7-2.8-7.8-4.3-12.5-4.4c-0.4,0-0.2,1,0.2,1c5.4,0,9.5,2.3,13.7,5.5
					c1.4,1.1,2.9,2.1,4.6,2.5c2.5,0.6,4.9-0.9,7.2,0.4c1.4,0.8,2.5,2,4.1,2.4c2.2,0.5,4.3-0.7,6.6-0.2c4.9,1,7.5,6.2,11.7,8.5
					C25.3,48,25.3,47,25,46.8L25,46.8z"/>
			</g>
		</g>
	</g>
	<g>
		<path class="st13" d="M64.2,68.2c-15.3,1.6-17.7,2.9-21.4,1.3c-4.7-2-9.6-1.5-14.3-3.4c-4.7-1.9-9.8-3.4-14.8-2.6
			c-1.6,0.3-3.3,0.9-3.6,2.8c-0.1,0.7,0.2,1.5,0.6,2.1c1.1,1.5,2.9,2.1,4.6,2.5l5.8,1.6c1.9,0.5,1.8,3.3-0.2,3.6c0,0,0,0,0,0
			c-1.6,0.2-3.3-0.1-4.8-0.5c-3.5-0.8-6.9-1.7-10.5-1.7c-4.3,0-8.8,1.5-11,5.5c-0.8,1.4-1,3.1-0.8,4.7c0.7,4.4,4.9,5.9,8.6,5.6
			c2.6-0.2,5-1.2,7.5-2.1c6-2.2,11.1,0.2,17.4,0.4C44.8,88.4,64.2,68.2,64.2,68.2z"/>
		<path class="st9" d="M-1.4,82.1c10.9-1.2,21.8-2.5,32.2-5.8c3.1-1,7-1.2,15.6-7.6"/>
	</g>
	<g>
		<path class="st13" d="M16.2,19.1c0.4,0.3,0.7,0.5,1.1,0.7c1.9,0.9,4,1,5.5,2.7c1,1.1,1.5,2.5,2.3,3.7c0.2,0.3,0.3,0.5,0.5,0.8
			c2.3,3.1,4.6,3.5,7,3.5c1,0,2-0.1,3.1-0.1c1.6,0,3.3,0.2,5.2,1.2c1.2,0.6,2.4,1.6,3.7,3c0.2,0.3,0.6,0.3,1,0.1
			c0.3-0.2,0.4-0.5,0.4-0.8c-0.6-2.9-1.9-4.8-3.4-6.2c-4.3-4-10.6-4.4-11-12.7c-0.1-1.8,0.3-3.1,0-4.3c-0.1-0.6-0.5-1.3-1.1-2
			c-1.3-1.4-3.2-2-4.8-3.1C21.1,2.2,23.3-3,22.9-8c-0.3-4.1-3.9-6.7-6.9-9c-3.7-2.7-3.7-7.7-6.2-11.4c-2.5-3.7-8.8-5.2-12.1-0.2
			C-6-23.7-4-17.5-3-12.5c0.3,1.3,0.7,2.5,1.3,3.5c1.9,3.3,5.1,5.6,7.8,8.3C7.9,1.1,9.3,3,10.3,5.2c0.6,1.3,1,2.6,1.3,4
			c0.1,0.3,0.1,0.7,0.2,1C12.4,13.7,13.2,16.8,16.2,19.1z"/>
		<g class="st12">
			<g>
				<path class="st7" d="M0.2-28.6c0.1,3.1,0.2,6.2,1.4,9.1c1,2.4,2.8,4,4.7,5.6c1.3,1.1,2.7,2.2,3.7,3.6c1.1,1.6,1,3.5,1.9,5.1
					c0.5,0.8,1,1.2,1.8,1.7c1.7,1.2,2.9,2.1,3.8,4c1.2,2.3,1.8,5,3.4,7.1c1.3,1.7,3.1,2.7,3.6,4.9c0.3,1.5,0.3,3,0.7,4.5
					c1.9,6.2,8.1,9.3,13.6,11.8c0.5,0.2,0.4-0.7,0.1-0.9c-3.4-1.6-6.9-3.2-9.6-5.8c-2.9-2.8-3.5-5.7-4.2-9.5
					c-0.4-2.6-1.7-3.3-3.4-5.2c-1.9-2.1-2.5-5-3.7-7.4c-1.1-2.2-2.4-3-4.2-4.4c-2.3-1.9-2.2-5.1-4.1-7.4c-1.7-2-4-3.3-5.7-5.2
					c-2.8-3.2-3-7.5-3.2-11.5C0.8-29,0.2-29.3,0.2-28.6L0.2-28.6z"/>
			</g>
		</g>
		<path class="st14" d="M35.7,30.4c1.6,0,3.3,0.2,5.2,1.2c0.2-2.6,1-3.1,1.6-4c-4.3-4-10.6-4.4-11-12.7c-0.1-1.8,0.3-3.1,0-4.3
			c-1.3,2.7-3.6,3.2-3.4,6c0.2,2.8,3.8,5.4,4.4,9C33.1,28.4,34.1,29.2,35.7,30.4z"/>
	</g>
	<g>
		<path class="st4" d="M77,72.5c-2.9-1.1-6.7-1.6-8.6,0.9c-1.5,2.1-0.7,5,0.3,7.4c0.9,2,2,4,4,5.1c1.3,0.7,2.8,1,4.3,1.1
			c4.1,0.5,8.3,0.7,12.5,0.7c4.8,0,10.7,2,14.7,5C99.1,83.2,86.8,76.3,77,72.5z"/>
		<path class="st10" d="M72,78.7c3.7,0.2,7.4,0.4,10.9,1.5c3.6,1.1,17.5,7.4,19.6,10.1"/>
	</g>
	<g>
		<path class="st13" d="M217.9,1.4c-0.1,0.4-0.1,0.9-0.1,1.3c0,2,0.8,3.9,0,5.9c-0.5,1.3-1.5,2.4-2.2,3.5c-0.2,0.2-0.3,0.5-0.5,0.8
			c-1.7,3.3-1.1,5.4,0,7.4c0.4,0.8,1,1.7,1.4,2.6c0.7,1.4,1.2,2.9,1.2,5c0,1.3-0.3,2.7-1,4.4c-0.1,0.3,0,0.7,0.4,0.9
			c0.3,0.2,0.6,0.2,0.9,0c2.2-1.8,3.3-3.7,3.9-5.6c1.6-5.4-0.8-10.9,6.2-14.8c1.5-0.8,2.7-1,3.7-1.8c0.5-0.4,0.9-0.9,1.3-1.8
			c0.6-1.7,0.4-3.6,0.6-5.4c0.8-5.2,6.2-5.6,10.3-8.1c3.4-2,4.1-6.2,4.8-9.8c0.8-4.4,5-6.5,7.1-10.2c2.1-3.7,0.7-9.7-5-10.5
			c-5.7-0.9-10.2,3.4-14.1,6.4c-1,0.8-1.8,1.7-2.5,2.7c-2,3-2.6,6.7-3.8,10.3c-0.7,2.2-1.8,4.2-3.2,6c-0.8,1-1.8,2-2.9,2.8
			c-0.3,0.2-0.5,0.4-0.8,0.6C221-4.1,218.6-2.2,217.9,1.4z"/>
		<g class="st12">
			<g>
				<path class="st7" d="M251.9-32.7c-2.5,1.4-5.2,2.8-7,5c-1.9,2.2-2.4,4.8-3,7.5c-0.4,1.6-0.8,3.2-1.9,4.5
					c-0.9,1.1-2.2,1.8-2.9,2.9c-0.6,0.9-0.6,1.8-0.7,2.9c-0.3,1.9-0.9,3.3-2.1,4.7c-1.5,1.9-3.4,3.5-4.4,5.8
					C229,2.4,229,4,227.3,5.4c-1.1,0.9-2.5,1.5-3.6,2.5c-4.6,4.3-4.6,11.1-4.4,16.9c0,0.5,0.6,0.8,0.6,0.1
					c-0.1-3.8-0.2-7.8,1.2-11.4c1.3-3.4,3.5-4.9,6.3-7c2.2-1.6,2-3.8,3.3-6.1c1.3-2.2,3.3-3.8,4.7-5.9c0.5-0.8,1-1.7,1.3-2.7
					c0.4-1.6,0.1-3.1,1.2-4.4c1.5-1.9,3.1-2.9,4-5.4c0.9-2.7,1.1-5.7,2.8-8.2c1.8-2.7,4.8-4.3,7.6-5.8
					C252.6-32,252.3-32.9,251.9-32.7L251.9-32.7z"/>
			</g>
		</g>
	</g>
	<g>
		<path class="st11" d="M201.3,81.1c4.4,2.5,6.2,8.4,9.8,9.9c4.5,1.9,6.1-3.2,13.5-1.4c6.2,1.5,7.6,8.7,18.3,7.2
			c3.2-0.5,5.5-3,4.6-6.3c-0.7-3.3-5-5.6-7.5-7.4c-2.3-1.5-4.3-2.3-5.5-4.9c0,0,0-0.1,0-0.1c-0.8-2.1-0.3-3.8-2.4-5.4
			c-4.9-4.1-11.6,1.4-17.5,0.9c-4.1-0.4-3.7-4.6-8.6-6.2c-4.8-1.5-3.5,2.9-13.5-1.7c-0.4-0.2-0.8,0-1,0.3l0,0
			c-0.1,0.3-0.1,0.5,0.1,0.8C198.3,74.6,194.8,77.4,201.3,81.1z"/>
		<path class="st8" d="M201.3,81.1c4.4,2.5,6.2,8.4,9.8,9.9c4.5,1.9,6.1-3.2,13.5-1.4c6.2,1.5,7.6,8.7,18.3,7.2
			c3.2-0.5,5.5-3,4.6-6.3c-0.7-3.3-5-5.6-7.5-7.4c-2.3-1.5-4.3-2.3-5.5-4.9c0,0,0-0.1,0-0.1c-0.8-2.1-0.3-3.8-2.4-5.4
			c-4.9-4.1-11.6,1.4-17.5,0.9c-4.1-0.4-3.7-4.6-8.6-6.2c-4.8-1.5-3.5,2.9-13.5-1.7c-0.4-0.2-0.8,0-1,0.3l0,0
			c-0.1,0.3-0.1,0.5,0.1,0.8C198.3,74.6,194.8,77.4,201.3,81.1z"/>
		<g class="st12">
			<g>
				<path class="st7" d="M196.1,71.1c3.8,2.4,5.9,7.1,10.2,8.8c2,0.8,3.7,0.3,5.7,0.3c2.8,0,3.8,2.1,6.1,3.1c1.9,0.9,4-0.2,6,0.4
					c2.5,0.6,4.3,2.7,6.2,4.3c3.3,2.9,7.2,4.6,11.7,4.9c0.5,0,0.3-0.9-0.1-1c-5.3-0.4-9.2-2.8-13.1-6.2c-1.2-1.1-2.5-2.2-4.1-2.7
					c-2.3-0.8-4.9,0.5-7.1-0.8c-1.3-0.8-2.3-2.1-3.8-2.6c-2.2-0.8-4.5,0.3-6.7-0.3c-4.7-1.3-6.9-6.6-10.9-9.1
					C195.8,69.9,195.8,70.9,196.1,71.1L196.1,71.1z"/>
			</g>
		</g>
	</g>
	<g>
		<g>
			<path class="st2" d="M44.3,69.1c0,0-19.2-4.2-33.9-2.6c-0.5,0,0.1-2.9,0.1-2.9s-3,3.2-3.8,3.3c-8.1,1.3-16,4.1-21.4,9.6
				c0,0,9.8-40.3,63.5-34.3L44.3,69.1z"/>
		</g>
		<g>
			<path class="st1" d="M55.4,71.2c0,0-8.6-3.9-19.3-12.2c-0.4-0.3,1.5-2.9,1.5-2.9s-4.3,0.7-5,0.1C20.4,45.8,6.3,29.9-0.8,7.4
				c0,0,11.8,0.5,28.2,6.5c0.7,0.3,2.6,3.8,2.6,3.8s0.8-2.5,1.4-2.2c15.1,6.1,33.4,16.7,50.1,35.3L55.4,71.2z"/>
		</g>
		<g class="st3">
			<g>
				<path class="st4" d="M-0.8,8c7.2,3.2,14.1,7,20.9,11c6.8,4,13.3,8.5,19.7,13.1c3.2,2.3,6.3,4.8,9.4,7.2l4.5,3.8
					c0.8,0.6,1.5,1.3,2.3,1.9l2.2,2c5.9,5.2,11.3,11,16.5,16.9l-4.2-4.2l-2.1-2.1c-0.7-0.7-1.4-1.3-2.2-2l-4.3-4l-4.4-3.9
					c-2.9-2.6-6-5.1-9-7.6c-3.1-2.4-6.2-4.9-9.4-7.1c-6.3-4.7-12.8-9.1-19.5-13.3c-3.3-2.1-6.7-4.1-10.1-6.1C6.2,11.7,2.7,9.8-0.8,8
					z"/>
			</g>
			<g>
				<path class="st4" d="M44.1,36c-2-0.5-3.9-0.9-5.8-1.3c-1.9-0.4-3.9-0.8-5.8-1.1c-2-0.3-3.9-0.6-5.9-0.8c-2-0.2-3.9-0.2-6-0.2
					c2-0.4,4-0.7,6-0.7c2,0,4,0.2,6,0.5C36.6,33.1,40.5,34.2,44.1,36z"/>
			</g>
			<g>
				<path class="st4" d="M25.3,23.1c-1.4-0.1-2.8-0.1-4.1-0.2c-1.4,0-2.7-0.1-4.1,0c-1.4,0-2.7,0.1-4.1,0.2
					c-1.4,0.1-2.7,0.3-4.1,0.6c1.3-0.5,2.6-1,4-1.2c1.4-0.2,2.8-0.4,4.2-0.4C19.8,22,22.6,22.3,25.3,23.1z"/>
			</g>
			<g>
				<path class="st4" d="M61.1,50.3c-1.7-0.8-3.5-1.3-5.3-1.8c-1.8-0.5-3.6-0.8-5.5-1c-1.8-0.2-3.7-0.3-5.5-0.2
					c-1.9,0.1-3.7,0.3-5.6,0.6c1.8-0.7,3.6-1.3,5.5-1.5c1.9-0.3,3.8-0.3,5.8-0.1c1.9,0.2,3.8,0.6,5.6,1.3
					C57.9,48.3,59.6,49.1,61.1,50.3z"/>
			</g>
			<g>
				<path class="st4" d="M44.1,36c-1.4-2.4-2.9-4.6-4.5-6.8c-0.8-1.1-1.7-2.1-2.6-3.1c-0.9-1-1.9-2-2.8-3c1.2,0.6,2.4,1.4,3.4,2.3
					c1.1,0.9,2,2,2.8,3.1c0.8,1.1,1.6,2.3,2.2,3.6C43.4,33.3,43.9,34.6,44.1,36z"/>
			</g>
			<g>
				<path class="st4" d="M60.9,49.9c-0.7-1.5-1.5-2.9-2.3-4.4c-0.8-1.4-1.5-2.9-2.4-4.3c-0.8-1.4-1.7-2.8-2.7-4.1
					c-1-1.3-2-2.6-3.1-3.8c1.4,0.9,2.7,2,3.8,3.3c1.1,1.3,2.1,2.6,2.9,4.1C59,43.5,60.3,46.6,60.9,49.9z"/>
			</g>
		</g>
		<g class="st12">
			<g>
				<path class="st7" d="M-6.4,67.7c2.4-3.3,5.8-5.9,9.4-8c3.6-2.1,7.5-3.6,11.5-4.6l3-0.6c1-0.2,2.1-0.3,3.1-0.4
					c2.1-0.3,4.1-0.3,6.2-0.4c1-0.1,2.1,0,3.1,0.1l3.1,0.2c2,0.3,4.1,0.5,6.1,0.9c-2.1-0.1-4.1-0.2-6.2-0.3l-3.1,0c-1,0-2,0-3.1,0.1
					c-2,0.2-4.1,0.2-6.1,0.6c-1,0.2-2,0.2-3,0.5l-3,0.7c-3.9,1-7.8,2.4-11.4,4.3c-0.9,0.5-1.8,0.9-2.6,1.5c-0.4,0.3-0.9,0.5-1.3,0.8
					l-1.2,0.9C-3.5,64.8-5,66.2-6.4,67.7z"/>
			</g>
		</g>
		<g class="st12">
			<g>
				<path class="st7" d="M26.7,54c-1.1,1.8-2.2,3.5-3.1,5.2c-0.5,0.9-0.8,1.8-1.2,2.7C22,63,21.8,63.9,21.6,65c-0.5-2.1,0-4.3,1-6.2
					c0.5-0.9,1.1-1.8,1.8-2.6C25,55.3,25.8,54.6,26.7,54z"/>
			</g>
		</g>
	</g>
	<g>
		<rect x="111.3" y="67" class="st15" width="31.7" height="21.8"/>
		<rect x="111.3" y="67" class="st6" width="31.7" height="7.9"/>
		<path class="st15" d="M159.4,88.4H95c-2,0-3.7,1.6-3.7,3.7c0,2,1.6,3.7,3.7,3.7h64.4c2,0,3.7-1.6,3.7-3.7l0,0
			C163.1,90.1,161.4,88.4,159.4,88.4z"/>
		<path class="st6" d="M163.1,92.1c0,2-1.6,3.7-3.7,3.7H95c-2,0-3.7-1.6-3.7-3.7c0-0.3,0-0.6,0.1-0.9c0.4,1.6,1.8,2.8,3.6,2.8h64.4
			c1.7,0,3.2-1.2,3.6-2.8C163,91.5,163.1,91.8,163.1,92.1z"/>
		<g>
			<g>
				<g>
					<path class="st16" d="M27.9,70c-1.2,0-2.3-1-2.3-2.3V-63.4c0-1.2,1-2.3,2.3-2.3h198.5c1.2,0,2.3,1,2.3,2.3V67.8
						c0,1.2-1,2.3-2.3,2.3H27.9z"/>
					<path class="st15" d="M226.4-64c0.4,0,0.6,0.3,0.6,0.6V67.8c0,0.4-0.3,0.6-0.6,0.6H27.9c-0.4,0-0.6-0.3-0.6-0.6V-63.4
						c0-0.4,0.3-0.6,0.6-0.6H226.4 M226.4-67.2H27.9c-2.1,0-3.9,1.7-3.9,3.9V67.8c0,2.1,1.7,3.9,3.9,3.9h198.5
						c2.1,0,3.9-1.7,3.9-3.9V-63.4C230.3-65.5,228.6-67.2,226.4-67.2L226.4-67.2z"/>
				</g>
			</g>
			<g>
				<path class="st15" d="M230.3,67.5V54.7H24v12.8c0,2.4,2,4.4,4.4,4.4h197.6C228.4,71.9,230.3,69.9,230.3,67.5z"/>
			</g>
		</g>
		<g>
			<circle class="st0" cx="127.2" cy="-37.6" r="15.9"/>
			<g>
				<defs>
					<circle id="SVGID_1_" cx="127.2" cy="-37.6" r="15.9"/>
				</defs>
				<clipPath id="SVGID_2_">
					<use xlink:href="#SVGID_1_"  style="overflow:visible;"/>
				</clipPath>
				<path class="st17" d="M133.3-41.3c0,3.4-2.8,6.1-6.1,6.1c-3.4,0-6.1-2.8-6.1-6.1s2.8-6.1,6.1-6.1
					C130.6-47.4,133.3-44.7,133.3-41.3z M136.4-15.5v-10.7c0-4.1-3.3-7.4-7.4-7.4h-3.8c-4.1,0-7.4,3.3-7.4,7.4v10.7c0,1.1,0.9,2,2,2
					h14.5C135.5-13.5,136.4-14.4,136.4-15.5z"/>
			</g>
		</g>
		<path class="st0" d="M165.2-3.6H89.1c-3.5,0-6.3-2.8-6.3-6.3l0,0c0-3.5,2.8-6.3,6.3-6.3h76.1c3.5,0,6.3,2.8,6.3,6.3l0,0
			C171.5-6.5,168.7-3.6,165.2-3.6z"/>
		<path class="st18" d="M162.6-8.3H91.8c-0.9,0-1.6-0.7-1.6-1.6l0,0c0-0.9,0.7-1.6,1.6-1.6h70.8c0.9,0,1.6,0.7,1.6,1.6l0,0
			C164.2-9,163.5-8.3,162.6-8.3z"/>
		<path class="st0" d="M165.3,19H89.2c-3.5,0-6.3-2.8-6.3-6.3l0,0c0-3.5,2.8-6.3,6.3-6.3h76.1c3.5,0,6.3,2.8,6.3,6.3l0,0
			C171.6,16.2,168.7,19,165.3,19z"/>
		<path class="st4" d="M91.1,14.4L91.1,14.4c-0.9,0-1.6-0.7-1.6-1.6l0,0c0-0.9,0.7-1.6,1.6-1.6l0,0c0.9,0,1.6,0.7,1.6,1.6l0,0
			C92.8,13.7,92,14.4,91.1,14.4z M97.7,12.8L97.7,12.8c0-0.9-0.7-1.6-1.6-1.6l0,0c-0.9,0-1.6,0.7-1.6,1.6l0,0c0,0.9,0.7,1.6,1.6,1.6
			l0,0C96.9,14.4,97.7,13.7,97.7,12.8z M102.5,12.8L102.5,12.8c0-0.9-0.7-1.6-1.6-1.6l0,0c-0.9,0-1.6,0.7-1.6,1.6l0,0
			c0,0.9,0.7,1.6,1.6,1.6l0,0C101.8,14.4,102.5,13.7,102.5,12.8z M107.4,12.8L107.4,12.8c0-0.9-0.7-1.6-1.6-1.6l0,0
			c-0.9,0-1.6,0.7-1.6,1.6l0,0c0,0.9,0.7,1.6,1.6,1.6l0,0C106.7,14.4,107.4,13.7,107.4,12.8z M112.3,12.8L112.3,12.8
			c0-0.9-0.7-1.6-1.6-1.6l0,0c-0.9,0-1.6,0.7-1.6,1.6l0,0c0,0.9,0.7,1.6,1.6,1.6l0,0C111.6,14.4,112.3,13.7,112.3,12.8z M117.2,12.8
			L117.2,12.8c0-0.9-0.7-1.6-1.6-1.6l0,0c-0.9,0-1.6,0.7-1.6,1.6l0,0c0,0.9,0.7,1.6,1.6,1.6l0,0C116.5,14.4,117.2,13.7,117.2,12.8z
			 M122.1,12.8L122.1,12.8c0-0.9-0.7-1.6-1.6-1.6l0,0c-0.9,0-1.6,0.7-1.6,1.6l0,0c0,0.9,0.7,1.6,1.6,1.6l0,0
			C121.4,14.4,122.1,13.7,122.1,12.8z"/>
		<path class="st18" d="M138,42.7h-21.6c-3.5,0-6.3-2.8-6.3-6.3l0,0c0-3.5,2.8-6.3,6.3-6.3H138c3.5,0,6.3,2.8,6.3,6.3l0,0
			C144.3,39.9,141.4,42.7,138,42.7z"/>
	</g>
	<path class="st19" d="M206.9,71.5v-7.2c0-2.4-1.9-4.3-4.3-4.3h-0.4v-6.7c0-9.8-8-17.8-17.8-17.8c-9.8,0-17.8,8-17.8,17.8V60h-0.4
		c-2.4,0-4.3,1.9-4.3,4.3v7.2H206.9z M172.6,53.4c0-6.6,5.3-11.9,11.9-11.9c6.6,0,11.9,5.3,11.9,11.9V60h-23.8V53.4z"/>
	<path class="st19" d="M215.3,4.1c-1.7-1.4-3.9-2.3-6.4-2.5c0-0.2,0-0.5,0-0.8c1.3-0.2,2.4-1.4,3.1-2.9c1.8-1.7,3-3.8,2.4-6.5
		c0-0.2,0-0.3,0.1-0.4c-0.8-1.4-2.2-2-3.7-3.4c-5.2-4.8-11.5,1.9-9.1,4.6c0.2,0.2,0.4,0.8,0.7,1.5c0,0,0,0,0,0
		c-0.1,0.5,0,1.4,0.4,1.8c0,0.3,0,0.5,0,0.8c0,0,0,0,0,0.1c0.1,0.4,0.2,0.8,0.4,1.1c0.3,1.3,1.1,2.6,2.7,3.1c0.1,0,0.3,0.1,0.4,0.1
		c0.1,0.4,0.1,0.6,0.1,0.9c-1.5,0.2-2.9,0.7-4.2,1.4c-10,4.8-19.9,20.5-18.8,23.9c1.1,3.4,3.9,7.5,5.7,10.2l0.3-0.1
		c0.2,0.5,0.3,1,0.5,1.6c0.1,0.3,0.2,0.5,0.4,0.7c0.3,0.2,0.7,0.2,1,0.2c0.4,0,0.9-0.1,1.3-0.4c0.2-0.2,0.3-0.4,0.4-0.7
		c0.2-0.7,0-1.4-0.3-2l0.2,0c0,0-4.3-6.5-4.2-10.4c0.1-1.4,3.4-4.8,6.2-7.4c-0.1,0.9-0.1,1.8-0.1,2.7l-1.3,31.4c0,0,1.1,0.2,3,0.5
		l1.8,18.8h7.1l0.2-17.7c0.1,0,0.2,0,0.3,0c0.1,0,0.2,0,0.2,0c0.3,0,0.7,0,1.1,0.1c0.1,0,0.2,0,0.4,0c0.1,0,0.3,0,0.4,0l0.7,17.5h7
		l1.4-17.9c0,0,0,0,0,0c0.3,0,0.6-0.1,0.9-0.2c0.1,0,0.2-0.1,0.4-0.1c0.2-0.1,0.5-0.1,0.7-0.2c0.1,0,0.2-0.1,0.4-0.1
		c0.2-0.1,0.4-0.1,0.6-0.2c0.1,0,0.2-0.1,0.3-0.1c0.3-0.1,0.6-0.2,0.9-0.4l-0.1-34c0-0.7,0-1.4-0.1-2.1c0-0.1,0-0.1,0-0.2
		c0-0.6-0.1-1.3-0.2-1.9c0-0.1,0-0.1,0-0.2c0-0.1,0-0.1,0-0.2c1.4,0.3,3.2,0.6,5.5,1c1.5,0.3,3,0.1,4.5-0.3V8.3
		C224.4,9,217.8,5.6,215.3,4.1z"/>
	<g>
		<circle class="st20" cx="119.6" cy="12.2" r="10.9"/>
		<circle class="st21" cx="119.6" cy="12.2" r="5.9"/>
	</g>
	<g>
		<path class="st22" d="M180.1,35.6c-9.8,0-17.8,8-17.8,17.8v17.1h35.5V53.4C197.9,43.6,189.9,35.6,180.1,35.6z M168.2,64.6V53.4
			c0-6.6,5.3-11.9,11.9-11.9c6.6,0,11.9,5.3,11.9,11.9v11.2H168.2z"/>
		<path class="st23" d="M180.1,39.1c-7.8,0-14.2,6.4-14.2,14.2v13.6h28.4V53.3C194.3,45.5,187.9,39.1,180.1,39.1z M192,64.6h-23.8
			V53.4c0-6.6,5.3-11.9,11.9-11.9c6.6,0,11.9,5.3,11.9,11.9V64.6z"/>
		<path class="st24" d="M198.1,95.8H162c-2.4,0-4.4-2-4.4-4.4v-27c0-2.4,2-4.4,4.4-4.4h36.1c2.4,0,4.4,2,4.4,4.4v27
			C202.5,93.9,200.6,95.8,198.1,95.8z"/>
		<path class="st22" d="M186.6,75.4c0-3.6-2.9-6.5-6.5-6.5s-6.5,2.9-6.5,6.5c0,2.5,1.4,4.7,3.5,5.8v7h6v-7
			C185.2,80.1,186.6,78,186.6,75.4z"/>
		<path class="st25" d="M198.2,60h-10.8c-2.4,7.3-6,14.2-10.7,20.3c-4.3,5.6-11.2,12.8-18.9,12.6c0.6,1.7,2.2,2.9,4,2.9h36.3
			c2.4,0,4.3-1.9,4.3-4.3V64.3C202.5,62,200.6,60,198.2,60z"/>
	</g>
	<g>
		<path class="st26" d="M184.4,35.6c0.3,1,0.6,2,0.9,3c0.1,0.3,0.2,0.5,0.4,0.7c0.3,0.2,0.7,0.2,1,0.2c0.4,0,0.9-0.1,1.3-0.4
			c0.2-0.2,0.3-0.4,0.4-0.7c0.2-0.7,0-1.5-0.4-2.1c-0.4-0.6-0.9-1.2-1.5-1.7"/>
		<path class="st26" d="M237.5,1.6c0.3-1.4,0.8-2.7,1.4-4c0.3,0.4,0.3,0.9,0.2,1.4c0.3-0.7,0.9-1.3,1.6-1.7c0.1,0,0.2-0.1,0.3,0
			c0.1,0,0.1,0.2,0.2,0.3c0.3,1.1,0.1,2.2-0.4,3.2s-1.3,1.8-2.4,2.2"/>
		<path class="st4" d="M208.5,93.4c2.5,0.6,4.6,1.4,5.8,2.4h-9.7l0.2-2.2L208.5,93.4z"/>
		<path class="st4" d="M196.7,93.4c-2.5,0.6-4.6,1.4-5.8,2.4h9.7l-0.2-2.2L196.7,93.4z"/>
		<g>
			<g>
				<path class="st27" d="M213.6,37.1L209,93.8c0,0-1.6,0.4-2.1,0.4c-0.3,0-0.8-0.1-1.3-0.2c-0.5-0.1-1-0.2-1-0.2l-1.7-42.9h-2.1
					l-0.4,42.9c0,0-1.1,0.3-2.3,0.3c-1.2,0-2.5-0.3-2.5-0.3l-5.5-58.2L213.6,37.1z"/>
			</g>
		</g>
		<g class="st28">
			<path class="st29" d="M204.9,36.5l-8-0.5c-0.1,10.5,1.5,47.8,1.6,58.1c1-0.1,1.9-0.3,1.9-0.3l0.4-42.9h2.1l1.7,42.9
				c0,0,0.5,0.1,1,0.2c0.2,0,0.3,0.1,0.5,0.1C206.1,82.4,205.1,41.3,204.9,36.5z"/>
		</g>
		<g>
			<path class="st27" d="M198.3-3.7C198.3-3.7,198.3-3.7,198.3-3.7c0.4,2,2.2,2.9,4.1,3.5c1.6,0.4,2,0.6,3.3-0.3
				c2.7-1.9,5.1-4.5,4.3-8.1c0-0.2,0-0.3,0.1-0.4c-0.8-1.4-2.2-2-3.7-3.4c-5.2-4.8-11.5,1.9-9.1,4.6C197.6-7.4,198.3-5.5,198.3-3.7z
				"/>
		</g>
		<path class="st30" d="M216.2,19c0-10.8-4.5-17.5-13-17.5s-13,9-13,19.8l-1.3,31.4c0,0,19.9,4,27.5,0.3L216.2,19z"/>
		<path class="st31" d="M216.2,19c0-3-0.4-5.7-1-8c-0.8,11.7-1.8,43-19.3,42.9c6.5,0.8,15.8,1.4,20.5-0.8L216.2,19z"/>
		<path class="st26" d="M207.5-5c-0.3-2.1-2.2-4.3-4.5-3.1c-1.5,0.7-3,0.8-4.2,0.1c0,0.4-0.1,1-0.1,1.6c-0.3-0.5-0.7-0.5-0.8,0
			c-0.1,0.6,0,1.8,0.7,2c0,0.1,0,0.2,0,0.3c0,1.6,0.7,4.1,3.3,4.7c0.1,0.6,0.1,0.7-0.1,1.5c0.1,0.5,2.1,0.8,2.8,0.2
			c-0.1-0.7-0.1-1-0.1-1.7c1.5-0.2,2.8-1.7,3.4-3.7C210.1-4.2,208.5-6.5,207.5-5z"/>
		<path class="st32" d="M207.5-5c-0.1-0.8-0.5-1.7-1-2.3c0.1,3.7-1.5,7.1-5.1,7.9c0.1,0,0.3,0.1,0.4,0.1c0.1,0.6,0.1,0.7-0.1,1.5
			c0.1,0.5,2.1,0.8,2.8,0.2c-0.1-0.7-0.1-1-0.1-1.7c1.5-0.2,2.8-1.7,3.4-3.7C210.1-4.2,208.5-6.5,207.5-5z"/>
		<path class="st30" d="M197.7,3c-10,4.8-19.9,20.5-18.8,23.9c1.1,3.4,3.9,7.5,5.7,10.2l3.6-0.6c0,0-4.3-6.5-4.2-10.4
			c0.1-2.4,9.7-10.4,9.7-10.4L197.7,3z"/>
		<path class="st30" d="M210,3.5c1.6,1.1,14.7,9,21.9,2c5.2-5,5.7-6,5.7-6l1.8,3.2c0,0-8.1,14.4-18,12.7s-10.1-2.2-10.1-2.2L210,3.5
			z"/>
	</g>
	<g>
		<path class="st19" d="M48.1,65c-3.8,1.1-6.9,3.5-9,6.8h26.6c-2-3.2-5.2-5.7-9-6.8V-0.2h-8.7v1.1h-9.3v7.8h9.3v1.9h-9.3v7.8h9.3V65
			z"/>
		<g>
			<rect x="44.5" y="0.9" class="st24" width="11.2" height="7.8"/>
			<rect x="44.5" y="10.6" class="st24" width="11.2" height="7.8"/>
			<rect x="52.8" y="0.9" class="st33" width="2.8" height="7.8"/>
			<rect x="52.8" y="10.6" class="st33" width="2.8" height="7.8"/>
			<rect x="53.8" y="-0.2" class="st24" width="8.7" height="68.2"/>
			<path class="st33" d="M58,70.4h0.3c0.3,0,0.5-0.2,0.5-0.5V2.7c0-0.3-0.2-0.5-0.5-0.5H58c-0.3,0-0.5,0.2-0.5,0.5v67.2
				C57.4,70.1,57.7,70.4,58,70.4z"/>
			<g>
				<path class="st24" d="M42.4,80.1c0-8.7,7-15.7,15.7-15.7c8.7,0,15.7,7,15.7,15.7s-7,15.7-15.7,15.7
					C49.4,95.8,42.4,88.8,42.4,80.1z M50.5,80.1c0,4.2,3.4,7.6,7.6,7.6c4.2,0,7.6-3.4,7.6-7.6c0-4.2-3.4-7.6-7.6-7.6
					C53.9,72.5,50.5,75.9,50.5,80.1z"/>
			</g>
			<path class="st33" d="M49.8,80.1c0,4.6,3.7,8.3,8.3,8.3s8.3-3.7,8.3-8.3s-3.7-8.3-8.3-8.3S49.8,75.5,49.8,80.1z M50.5,80.1
				c0-4.2,3.4-7.6,7.6-7.6c4.2,0,7.6,3.4,7.6,7.6c0,4.2-3.4,7.6-7.6,7.6C53.9,87.7,50.5,84.3,50.5,80.1z"/>
		</g>
		<g>
			<path class="st19" d="M115.2,14.4c-2.8,2.4-12.7,12.8-14.5,7.2c-1.4-4.5-4.5-10.6-6.2-12.7c-1.2-1.3-2.7-2.2-4.3-2.6V5.6
				c1.7,0,4.4-0.3,4.4-6.6c0-1.9-0.2-3.1-0.5-3.9c0.5-0.5,0.5-1.5,0.1-2.1c-0.5-0.8-1.7-1.5-2.6-1.9c-2-0.9-4.6-1.3-6.5-0.1
				c-0.7-0.9-1.7-1.7-2.4-2.1c-0.8-0.4-1.7-0.8-2.6-0.8c-1.8,0-3.4,1.4-4.3,3c-0.7,1.3-1,2.9-0.7,4.3c0.3,1.5,1.2,2.8,2.6,3.5
				c0.4,0.2,0.8,0.3,1.3,0.2C79.5-1,80-1.3,80.4-1.8c1-1,1.1-2.2,1.9-3.3c0.1-0.2,0.2-0.3,0.4-0.4c-0.2,0.7-0.3,1.5-0.3,2.2
				c0,2.1,0.7,4.2,1.7,6.1c0.3,0.5,0.6,1,1,1.3c0.4,0.3,1.6,0.6,2.1,0.3L87,6c-1.4,0.1-2.7,0.5-4,1.2c0,0,0,0,0,0
				c-7.5,1.7-13.1,20-23.1,18.8v0c-1.2-0.3-2.5-0.4-2.6,0.8c-0.1,2.3,1.3,2.6,2.6,2.4v0c4.2,0,9.7-1.2,14.6-6.6
				c-2.7,15.1-1.6,35-1.6,35c0.7,0.1,1.4,0.2,2.2,0.3l1.2,13.9h6.4l0-13.2c1.3,0.1,2.6,0.1,3.8,0.1l0.1,13.2h7.4L95.3,58
				c1.3-0.2,2.6-0.4,3.9-0.7c-0.3-8.3-0.3-19.2-0.9-28.6c0.4,0.4,0.8,0.7,1.4,0.8c0.9,0.2,4.6,4.5,7.3,1.2
				c2.7-3.3,8.4-10.2,10.5-13.7C117.1,15.9,115.9,15.5,115.2,14.4z"/>
			<polygon class="st34" points="91,3.9 90.6,7.2 94,7.5 94,4.1 			"/>
			<path class="st35" d="M65,27.4c0,0-4.5-2.2-4.6,0c-0.2,4.2,4.6,1.8,4.6,1.8V27.4z"/>
			<path class="st26" d="M65.6,26.8c0,0-4.5-2.2-4.6,0c-0.2,4.2,4.6,1.8,4.6,1.8V26.8z"/>
			<g>
				<path class="st26" d="M88-1c0,2.9,3,6.6,5.9,6.6c1.7,0,4.5-0.3,4.5-6.6c0-6.6-2.2-5.3-5.1-5.3C90.3-6.3,88-3.9,88-1z"/>
			</g>
			<path class="st32" d="M92.4,1.5c0-2.5,0.3-5.4,1.2-7.7c-0.1,0-0.3,0-0.4,0C90.3-6.3,88-3.9,88-1c0,2.9,2.9,6.4,5.8,6.5
				C92.8,4.5,92.4,3.1,92.4,1.5z"/>
			<path class="st36" d="M97.3-4.5c-0.5,0.1-1-0.2-1.4,0c-0.7,0.3-0.7,1.4-1.4,1.7c-0.8,0.5-2-0.4-2.7,0.3c-0.4,0.4-0.4,1-0.3,1.6
				c0.1,1.5-0.1,3-0.5,4.4c-0.1,0.3,0.3,0.9,0.1,1.1c-0.4,0.4-1.7,0-2.1-0.3c-0.5-0.3-0.8-0.8-1-1.4c-1-1.9-1.7-4-1.7-6.2
				s0.9-4.4,2.6-5.6c1.9-1.4,4.6-1,6.7,0C96.3-8.5,97.5-7.8,98-7C98.5-6.2,98.4-4.7,97.3-4.5z"/>
			<path class="st33" d="M96.7-8.2c-0.7,0.6-1.4,1.7-1.9,2.1c-0.7,0.5-1.6,0.6-2.4,0.9c-3.8,1.2-4,6.9-2.4,10c0.4,0.1,0.8,0,1-0.1
				c0.3-0.2-0.2-0.8-0.1-1.1c0.4-1.4,0.6-2.9,0.5-4.4c0-0.6-0.1-1.2,0.3-1.6c0.7-0.6,1.9,0.2,2.7-0.3c0.6-0.4,0.7-1.5,1.4-1.7
				c0.4-0.2,0.9,0,1.4,0C98.4-4.7,98.5-6.2,98-7C97.8-7.4,97.3-7.8,96.7-8.2z"/>
			<path class="st36" d="M86.5-11c-0.8-0.5-1.7-0.8-2.6-0.9c-1.8,0-3.4,1.4-4.3,3c-0.7,1.3-1,2.9-0.7,4.4C79.2-3,80.1-1.7,81.5-1
				c0.4,0.2,0.8,0.3,1.3,0.3c0.6-0.1,1.1-0.5,1.5-0.9c1-1,1.1-2.3,1.9-3.4c0.6-0.9,1.9-0.5,2.7-1.1C90.9-7.6,87.9-10.3,86.5-11z"/>
			<path class="st33" d="M87.5-7.1c-0.4-0.2-0.7-0.6-1.1-0.8c-0.6-0.6-3.4-0.9-4,3.1c-0.2,1.2-1.1,2.4-2,3c0.3,0.3,0.7,0.6,1.1,0.8
				c0.4,0.2,0.8,0.3,1.3,0.3c0.6-0.1,1.1-0.5,1.5-0.9c1-1,1.1-2.3,1.9-3.4c0.6-0.9,1.9-0.5,2.7-1.1c0.3-0.2,0.5-0.4,0.6-0.7
				C88.8-6.7,88.2-6.7,87.5-7.1z"/>
			<path class="st37" d="M85.6,93.4c2.5,0.6,4.6,1.4,5.8,2.4h-9.7l0.2-2.2L85.6,93.4z"/>
			<path class="st37" d="M94.3,93.4c2.5,0.6,4.6,1.4,5.8,2.4h-9.7l0.2-2.2L94.3,93.4z"/>
			<path class="st35" d="M119.4,12.3c-0.1,0-0.1-0.1-0.2-0.1c-0.4-0.1-0.7,0.2-1,0.4c-0.5,0.4-1.5,1.2-2,1.7c0,0,0,0,0,0
				c-0.1,0.1-0.3,0.3-0.4,0.4c-0.3,0.5-0.4,1.2-0.1,1.7c0.2,0.4,0.7,0.7,1.2,0.7c0.7,0,1.6-0.4,2-0.9c0.5-0.5,0.4-1.1,0.1-1.7
				c-0.2-0.4-0.5-0.6-0.9-0.7c0.4-0.2,0.8-0.5,1.2-0.8c0.1-0.1,0.2-0.2,0.2-0.3C119.5,12.5,119.5,12.3,119.4,12.3z"/>
			<g>
				<g>
					<path class="st26" d="M119.1,13.7c0.3,0.6,0.4,1.2-0.1,1.7c-0.5,0.5-1.4,0.9-2,0.9c-0.5,0-0.9-0.3-1.2-0.7
						c-0.3-0.5-0.2-1.2,0.1-1.7C116.7,12.9,118.4,12.3,119.1,13.7z"/>
				</g>
				<g>
					<path class="st26" d="M118,13.1c0.5-0.3,1-0.6,1.4-1c0.1-0.1,0.2-0.2,0.2-0.3c0-0.1,0-0.2-0.1-0.3c-0.1,0-0.1-0.1-0.2-0.1
						c-0.4-0.1-0.7,0.2-1,0.4c-0.5,0.4-1.5,1.2-2,1.7C116.7,13.6,117.7,13.3,118,13.1z"/>
				</g>
			</g>
			<g>
				<path class="st8" d="M105.7,22c3.6-2.4,6.4-4.9,9.7-7.8c0.2-0.2,0.5-0.2,0.7,0c0.6,0.7,1.6,1.8,1.5,2.2
					c-0.1,0.2-0.2,0.4-0.4,0.6c-3,3.4-6.1,6.7-9.1,10.1c-0.6,0.7-1.2,1.3-2,1.8c-0.8,0.5-1.7,0.8-2.5,0.5c-1.5-0.4-2.3-1.9-3.1-3.1
					c-3.9-6.3-3.3-8.6-2.8-10.5c0.3-1.3,0.8-2.7,1-4.1c0.1-0.4-1-2.8-0.4-2.9c1.8,2.1,4.4,8.4,6.2,12.7
					C104.7,22.1,105.3,22.3,105.7,22z"/>
			</g>
			<g>
				<g>
					<path class="st27" d="M77.4,42.1l4.6,51.7c0,0,1.6,0.4,2.1,0.4c0.3,0,0.8-0.1,1.3-0.2c0.5-0.1,1-0.2,1-0.2l0-39.1h3.8l0.4,39.1
						c0,0,1.1,0.3,2.3,0.3c1.2,0,2.5-0.3,2.5-0.3l5.5-53.1L77.4,42.1z"/>
				</g>
				<g>
					<path class="st38" d="M89.1,46c0,1.8-0.1,3.3,0.5,4.9c0.5,1.2,1.6,2.1,3.1,2c2.3,0,3.8-1.3,3.8-3.6c0-0.3,0.1-3.4,0.3-3.4
						C96.9,46,89.1,46,89.1,46z"/>
				</g>
				<g>
					<path class="st38" d="M78.4,46c0,1.8-0.1,3.3,0.4,4.9c0.3,1.2,1.1,2.1,2.2,2c1.6,0,2.5-1.8,2.7-3.5c0-0.3,0.1-3.4,0.2-3.4
						C83.8,46,78.4,46,78.4,46z"/>
				</g>
				<g>
					<path class="st39" d="M86.4,54.7C86.4,54.7,86.4,54.7,86.4,54.7c0.1,0,0.1-0.1,0.1-0.1c-0.6-3.5-0.2-10.2-0.2-10.3
						c0,0,0-0.1,0-0.1c0,0,0,0-0.1,0c-0.1,0-6.1,0.3-8.6-0.4c0,0-0.1,0-0.1,0.1c0,0.1,0,0.1,0.1,0.1c2.4,0.6,7.7,0.4,8.6,0.4
						C86,45.3,85.7,51.4,86.4,54.7C86.3,54.7,86.3,54.7,86.4,54.7z"/>
				</g>
				<g>
					<path class="st39" d="M87.1,54.7C87.1,54.7,87.1,54.7,87.1,54.7c0.1,0,0.1-0.1,0.1-0.1c-0.4-4.1-0.4-7.4-0.1-10.2
						c3.6,0,8-0.5,13-1.4c0.1,0,0.1-0.1,0.1-0.1c0-0.1-0.1-0.1-0.1-0.1c-5,0.9-9.4,1.4-13,1.4c0,0-0.1,0-0.1,0.1
						C86.6,47.2,86.7,50.5,87.1,54.7C87,54.7,87.1,54.7,87.1,54.7z"/>
				</g>
				<g class="st40">
					<path class="st41" d="M85.3,94.1c0.5-0.1,1-0.2,1-0.2l0-39.1h0.3c-0.1-0.1-0.2-0.2-0.3-0.1c-0.7,0.3-1.1,0.8-1.5,1.5
						c-0.4,0.5-0.6,1.1-0.6,1.7C83.9,69.9,84.6,79,85.3,94.1z"/>
				</g>
				<g>
					<path class="st39" d="M95,92.8c-0.1,0-0.1-0.1-0.1-0.1l0.1-0.8c0-0.1,0.1-0.1,0.1-0.1c0.1,0,0.1,0.1,0.1,0.1l-0.1,0.8
						C95.1,92.7,95.1,92.8,95,92.8C95,92.8,95,92.8,95,92.8z M95.3,90.5c-0.1,0-0.1-0.1-0.1-0.1l0.2-1.5c0-0.1,0.1-0.1,0.1-0.1
						c0.1,0,0.1,0.1,0.1,0.1l-0.2,1.5C95.4,90.5,95.3,90.5,95.3,90.5C95.3,90.5,95.3,90.5,95.3,90.5z M95.6,87.5
						c-0.1,0-0.1-0.1-0.1-0.1l0.2-1.5c0-0.1,0.1-0.1,0.1-0.1c0.1,0,0.1,0.1,0.1,0.1l-0.2,1.5C95.7,87.5,95.6,87.5,95.6,87.5
						C95.6,87.5,95.6,87.5,95.6,87.5z M95.9,84.5c-0.1,0-0.1-0.1-0.1-0.1l0.2-1.5c0-0.1,0.1-0.1,0.1-0.1c0.1,0,0.1,0.1,0.1,0.1
						L96,84.4C96,84.4,95.9,84.5,95.9,84.5C95.9,84.5,95.9,84.5,95.9,84.5z M96.2,81.5c-0.1,0-0.1-0.1-0.1-0.1l0.2-1.5
						c0-0.1,0.1-0.1,0.1-0.1c0.1,0,0.1,0.1,0.1,0.1l-0.2,1.5C96.3,81.4,96.3,81.5,96.2,81.5C96.2,81.5,96.2,81.5,96.2,81.5z
						 M96.5,78.5c-0.1,0-0.1-0.1-0.1-0.1l0.2-1.5c0-0.1,0.1-0.1,0.1-0.1c0.1,0,0.1,0.1,0.1,0.1l-0.2,1.5
						C96.6,78.4,96.6,78.5,96.5,78.5C96.5,78.5,96.5,78.5,96.5,78.5z M96.8,75.5c-0.1,0-0.1-0.1-0.1-0.1l0.2-1.5
						c0-0.1,0.1-0.1,0.1-0.1c0.1,0,0.1,0.1,0.1,0.1l-0.2,1.5C96.9,75.4,96.9,75.5,96.8,75.5C96.8,75.5,96.8,75.5,96.8,75.5z
						 M97.1,72.5c-0.1,0-0.1-0.1-0.1-0.1l0.2-1.5c0-0.1,0.1-0.1,0.1-0.1c0.1,0,0.1,0.1,0.1,0.1l-0.2,1.5
						C97.2,72.4,97.2,72.5,97.1,72.5C97.1,72.5,97.1,72.5,97.1,72.5z M97.4,69.5c-0.1,0-0.1-0.1-0.1-0.1l0.2-1.5
						c0-0.1,0.1-0.1,0.1-0.1c0.1,0,0.1,0.1,0.1,0.1l-0.2,1.5C97.5,69.4,97.5,69.5,97.4,69.5C97.4,69.5,97.4,69.5,97.4,69.5z
						 M97.7,66.5c-0.1,0-0.1-0.1-0.1-0.1l0.2-1.5c0,0,0-0.1,0.1-0.1c0,0,0,0,0,0c0.1,0,0.1,0.1,0.1,0.1l-0.2,1.5
						C97.8,66.4,97.8,66.5,97.7,66.5C97.7,66.5,97.7,66.5,97.7,66.5z M98,63.4c-0.1,0-0.1-0.1-0.1-0.1l0.2-1.5
						c0-0.1,0.1-0.1,0.1-0.1c0.1,0,0.1,0.1,0.1,0.1l-0.2,1.5C98.1,63.4,98.1,63.4,98,63.4C98,63.4,98,63.4,98,63.4z M98.3,60.4
						c-0.1,0-0.1-0.1-0.1-0.1l0.2-1.5c0-0.1,0.1-0.1,0.1-0.1c0.1,0,0.1,0.1,0.1,0.1l-0.2,1.5C98.4,60.4,98.4,60.4,98.3,60.4
						C98.4,60.4,98.3,60.4,98.3,60.4z M98.7,57.4c-0.1,0-0.1-0.1-0.1-0.1l0.2-1.5c0-0.1,0.1-0.1,0.1-0.1c0.1,0,0.1,0.1,0.1,0.1
						l-0.2,1.5C98.8,57.4,98.7,57.4,98.7,57.4C98.7,57.4,98.7,57.4,98.7,57.4z M99,54.4c-0.1,0-0.1-0.1-0.1-0.1l0.2-1.5
						c0-0.1,0.1-0.1,0.1-0.1c0.1,0,0.1,0.1,0.1,0.1l-0.2,1.5C99.1,54.4,99,54.4,99,54.4C99,54.4,99,54.4,99,54.4z M99.3,51.4
						c-0.1,0-0.1-0.1-0.1-0.1l0.2-1.5c0-0.1,0.1-0.1,0.1-0.1c0.1,0,0.1,0.1,0.1,0.1l-0.2,1.5C99.4,51.4,99.3,51.4,99.3,51.4
						C99.3,51.4,99.3,51.4,99.3,51.4z M99.6,48.4c-0.1,0-0.1-0.1-0.1-0.1l0.2-1.5c0-0.1,0.1-0.1,0.1-0.1c0.1,0,0.1,0.1,0.1,0.1
						l-0.2,1.5C99.7,48.4,99.6,48.4,99.6,48.4C99.6,48.4,99.6,48.4,99.6,48.4z M99.9,45.4c-0.1,0-0.1-0.1-0.1-0.1l0.2-1.5
						c0-0.1,0.1-0.1,0.1-0.1c0.1,0,0.1,0.1,0.1,0.1l-0.2,1.5C100,45.4,99.9,45.4,99.9,45.4C99.9,45.4,99.9,45.4,99.9,45.4z"/>
				</g>
			</g>
			<path class="st37" d="M86.7,7.2c-7.5,1.7-13.1,20-23.1,18.8v3.3c4.7,0,11.1-1.5,16.3-8.7C87.5,10.3,86.7,7.2,86.7,7.2z"/>
			<path class="st8" d="M86.7,7.2c-7.5,1.7-13.1,20-23.1,18.8v3.3c4.7,0,11.1-1.5,16.3-8.7C87.5,10.3,86.7,7.2,86.7,7.2z"/>
			<path class="st13" d="M98.3,8.9c4.6,5.3,4.2,31.9,4.7,48.4c-8.3,1.7-17.1,1.7-26.4,0.3c0,0-1.4-26.7,3.2-41.7
				C83,5.7,93.4,3.4,98.3,8.9z"/>
			<path class="st42" d="M82.9,44c-1.7-5.6-2.5-11.4-2.5-17.3c0-4.9,0.1-10.3,1.4-15.2c-0.9,1.3-1.6,2.7-2.1,4.4
				c-4.6,15.1-3.2,41.7-3.2,41.7c4.7,0.7,9.3,1,13.7,1C87,54.4,84.6,49.4,82.9,44z"/>
		</g>
	</g>
	<g>
		<path class="st42" d="M10,0.6c0.7,0,5.3-3.4,7-4.6c0.5-0.3,1-0.7,1.4-1.1c0.3-0.5,0.5-1.1,0.3-1.7c-0.3-0.7-0.8-1.3-2.1-1.3
			c-2.3,0-3.1,0.8-4.2,1.9C8.6-2.4,10,0.6,10,0.6z"/>
		<path class="st42" d="M30.6,14.3c2,0.9,4.1,1.8,6.3,1.5c0.8-0.1,1.8-0.5,2-1.3c0.2-0.7-0.1-1.5-0.6-2c-0.5-0.5-1.3-0.7-2-0.9
			c-2.7-0.6-6.4-0.3-9,0.5C27.3,12.2,29.4,13.8,30.6,14.3z"/>
		<path class="st42" d="M43.8-15.2c-0.9-0.6-1.9-1.3-1.9-2.4c0-1.1,1.1-1.9,2.2-1.9c1.1,0,2,0.6,2.8,1.3c3.4,3,2.9,6.3,2.9,6.3
			S44.8-14.6,43.8-15.2z"/>
		<path class="st42" d="M46.4-24.2c-0.8-0.3-1.6-0.7-2-1.5c-0.2-0.3-0.4-0.8-0.2-1.2c0.2-0.7,0.6-1.2,2.3-0.9
			c5.2,0.9,6.4,4.5,6.4,4.5S47.8-23.6,46.4-24.2z"/>
		<path class="st42" d="M61.7-16.3c2.1-0.2,4.3-1.2,5.6-2.9c0.5-0.6,1-1.3,1.1-2.1c0.2-0.8,0-1.7-0.6-2.2c-0.7-0.6-1.9-0.5-2.7,0
			c-0.8,0.5-1.3,1.4-1.7,2.3C62.8-20,61.7-16.3,61.7-16.3z"/>
		<path class="st43" d="M24.3,60.1c-5.1-4.5-10.1-8.9-15.2-13.4c-2.7-2.4-5.5-4.8-7.2-8C-1.8,31.8,0.4,23,5.3,17S17.6,7.6,24.9,5
			c7.3-2.6,14.9-4.3,21.9-7.7c4.4-2.1,8.8-5.3,10-10c0.7-2.8,0.1-6-1.6-8.3c-1.7-2.4-4.5-3.9-7.5-4.1"/>
		<path class="st43" d="M65.3-21.2c-1.4,4.3-6.8,6.8-9.2,10.5"/>
		<path class="st43" d="M45.9-16.3c1.1,1.1,2.3,2.1,3.3,3.3c2,2.6,2.1,6.9-0.8,9.5"/>
		<path class="st43" d="M18.6,7.5c4.5,3.4,10.4,5.7,16,6"/>
		<path class="st43" d="M8.3,13.8C6.3,7.7,8.5,0.5,13.6-3.4"/>
	</g>
	<g>
		<path class="st42" d="M185.7-69.6c-0.2-0.8-0.2-1.7,0.3-2.2c0.4-0.4,1.2-0.6,1.7-0.4c4.4,2,4,8.9,4,8.9S187.5-64,185.7-69.6z"/>
		<path class="st42" d="M185.6-56.6c-2.9,5.2,7.3,4.8,11,1.7C196.6-54.9,188.1-61.1,185.6-56.6z"/>
		<path class="st42" d="M198.5-69.3c-0.7-1-0.9-2.4-0.2-3.3c0.6-0.7,1.5-0.9,2.4-0.7c0.9,0.2,2.1,1,2.7,1.6c3.4,4.2,1.8,8.3,1.8,8.3
			S199.6-67.7,198.5-69.3z"/>
		<path class="st42" d="M239-56.4c-0.2-0.8-0.2-1.8,0.4-2.4c0.4-0.4,1-0.5,1.5-0.4c0.5,0,1,0.2,1.5,0.5c1,0.5,1.8,1.3,2.3,2.3
			c1.3,2.6,0.4,5.8,0.4,5.8S239.6-54.4,239-56.4z"/>
		<path class="st42" d="M226.3-46.8c-1.8-1.6-4.6-2.1-6.8-1.1c-0.6,0.2-1.1,0.6-1.4,1.1c-0.8,1.1-0.5,2.8,0.3,3.8
			c0.8,1.1,2.1,1.8,3.4,2.3c2.3,1,5.8,1.2,8.2,1.9C229.9-38.8,229.9-43.6,226.3-46.8z"/>
		<path class="st43" d="M188.9-68.5c1.5,4.9,5.7,8.6,10.5,10.7c4.7,2,9.9,2.5,15.1,2.9c5.1,0.3,10.3,0.5,15.3,1.8
			c4.8,1.3,9.6,4.1,11.7,8.6c2.5,5.6,0.3,12.2-3.3,17.2c-3.5,5-8.3,9-11.7,14c-1.6,2.3-2.9,5-2.6,7.8c0.4,3.7,3.5,6.5,6.4,8.8"/>
		<path class="st43" d="M200.7-70.3c3.4,3.8,6.1,9.7,6.8,14.7"/>
		<path class="st43" d="M189.3-55.8c1.9,0.5,3.9,1,5.9,1c2,0,4.3-1.1,5.8-2.5"/>
		<path class="st43" d="M242.3-56.1c1.8,1.8,2.9,4.2,3,6.8c0.1,2.5-1.3,5.6-3,7.5"/>
		<path class="st43" d="M223.3-44.6c3.6,3.4,6.8,6.1,10.8,8.9c1.8,1.3,5.5,3,7.1,2.5"/>
	</g>
</g>
<g>
	<g>
		<path class="st44" d="M288.8-26.3v11.6c0,3.1,7,5.6,15.7,5.6s15.7-2.6,15.7-5.6v-11.6H288.8z"/>
		<ellipse class="st45" cx="304.6" cy="-25.3" rx="15.7" ry="5.5"/>
		<g>
			<g>
				<g>
					<defs>
						<path id="SVGID_3_" d="M290.6-42.4v17.1c0,2.5,6.1,4.4,13.9,4.4s13.9-2,13.9-4.4v-17.1H290.6z"/>
					</defs>
					<clipPath id="SVGID_4_">
						<use xlink:href="#SVGID_3_"  style="overflow:visible;"/>
					</clipPath>
					<rect x="290.5" y="-35" class="st46" width="28.1" height="30.4"/>
				</g>
			</g>
		</g>
	</g>
	<path class="st44" d="M288.8-40.8v11.5c0,3.1,7,5.6,15.7,5.6s15.7-2.6,15.7-5.6v-11.5H288.8z"/>
	<ellipse class="st45" cx="304.6" cy="-39.9" rx="15.7" ry="5.5"/>
	<g>
		<g>
			<g>
				<defs>
					<path id="SVGID_5_" d="M290.6-56.8v16.9c0,2.5,6.1,4.4,13.9,4.4s13.9-2,13.9-4.4v-16.9H290.6z"/>
				</defs>
				<clipPath id="SVGID_6_">
					<use xlink:href="#SVGID_5_"  style="overflow:visible;"/>
				</clipPath>
				<rect x="290.5" y="-49.6" class="st47" width="28.1" height="30.4"/>
			</g>
		</g>
	</g>
	<g>
		<path class="st48" d="M288.8-53.4v9.4c0,3.1,7,5.6,15.7,5.6s15.7-2.6,15.7-5.6v-9.4H288.8z"/>
		<ellipse class="st45" cx="304.6" cy="-53.3" rx="15.7" ry="5.5"/>
		<ellipse class="st48" cx="304.6" cy="-53.3" rx="14.1" ry="4.4"/>
	</g>
</g>
<g>
	<g>
		<path class="st42" d="M46.2-83.4c-9-3-13.9-8.5-13.9-8.5s-4.9,5.5-13.9,8.5C10.2-80.7,1.6-81,1.6-81s0,29.5,10.1,41.4
			c9.5,11.1,20.7,13.1,20.7,13.1s11.1-2,20.7-13.1C63.2-51.5,63.2-81,63.2-81S54.3-80.8,46.2-83.4z"/>
		<path class="st49" d="M32.1-31.3c-2.5-0.8-10.4-3.4-17.1-11.4C8.7-50.1,6.6-67,6.1-76.7c3.6-0.3,8.6-0.9,13.5-2.5
			c5.6-1.9,9.8-4.6,12.5-6.8c2.6,2.1,6.9,4.9,12.5,6.8c4.9,1.6,10,2.3,13.5,2.5c-0.5,9.8-2.6,26.7-8.9,33.9
			C42.5-34.7,34.6-32,32.1-31.3z"/>
		<path class="st8" d="M32.1-32.8c-2.6-0.8-9.8-3.4-16-10.8c-5.8-6.8-7.9-22-8.5-31.7c3.5-0.3,8-1,12.5-2.5c5.3-1.8,9.3-4.1,12-6.3
			c2.8,2.1,6.8,4.5,12,6.3c4.4,1.5,8.9,2.1,12.5,2.5c-0.6,9.6-2.8,24.9-8.5,31.7C41.9-36.2,34.9-33.6,32.1-32.8z"/>
	</g>
	<polyline class="st50" points="19.9,-56.7 28.6,-48.2 47.2,-67.5 	"/>
</g>
<g>
	<g>
		<g>
			<circle class="st51" cx="329.7" cy="35.2" r="16.8"/>
			<path class="st52" d="M309,35.2c0,11.3,9.2,20.6,20.6,20.6c11.4,0,20.6-9.2,20.6-20.6c0-11.3-9.2-20.6-20.6-20.6
				C318.2,14.6,308.9,23.8,309,35.2z M328.5,26.6v7.8h-9.4c0.2-3,0.6-5.9,1.3-8.4C323.3,26.3,325.9,26.6,328.5,26.6L328.5,26.6z
				 M321.1,24.2c1.6-4.4,4.4-7.6,7.6-8.1v8.6C326.2,24.9,323.6,24.7,321.1,24.2z M337.9,24.2c-2.5,0.3-5.1,0.6-7.6,0.6v-8.6
				C333.5,16.8,336.3,19.8,337.9,24.2z M338.4,26c0.8,2.5,1.3,5.4,1.3,8.4h-9.4v-7.8C333.1,26.6,335.8,26.3,338.4,26z M340.3,25.8
				c1.6-0.3,3.3-0.8,4.9-1.3c1.7,2.9,3,6,3.2,9.7h-6.8C341.5,31.1,341.1,28.4,340.3,25.8z M348.2,36c-0.2,3.6-1.3,6.8-3.2,9.7
				c-1.4-0.5-3.3-1-4.9-1.3c1-2.5,1.3-5.4,1.3-8.6h6.8V36z M338.7,44.2c-2.7-0.3-5.4-0.6-8.2-0.6V36h9.4
				C339.8,39,339.3,41.8,338.7,44.2z M337.9,45.8c-1.6,4.4-4.4,7.6-7.6,8.1v-8.6C333,45.3,335.5,45.5,337.9,45.8z M321.1,45.8
				c2.5-0.3,5.1-0.6,7.6-0.6v8.6C325.7,53.4,322.8,50.4,321.1,45.8z M320.8,44.4c-0.8-2.5-1.3-5.4-1.3-8.4h9.4v7.6
				C325.9,43.6,323.3,43.9,320.8,44.4z M318.7,44.5c-1.6,0.3-3.3,0.8-4.9,1.3c-1.7-2.9-3-6-3.2-9.7h6.8
				C317.8,39,318.2,42,318.7,44.5z M310.9,34.2c0.2-3.6,1.3-6.8,3.2-9.7c1.4,0.5,3.3,1,4.9,1.3c-1,2.5-1.3,5.4-1.3,8.6h-6.8V34.2z
				 M323.6,17.1c-1.6,1.6-3.2,4-4.1,6.8c-1.4-0.2-3-0.5-4.4-1C317.3,20.4,320.3,18.4,323.6,17.1z M344.2,23.1c-1.4,0.3-3,0.6-4.4,1
				c-1.1-2.9-2.4-5.2-4.1-6.8C339,18.4,342,20.4,344.2,23.1z M335.5,52.9c1.6-1.6,3.2-4,4.1-6.8c1.4,0.2,3,0.5,4.4,1
				C342,49.9,339,52,335.5,52.9z M315.1,47.1c1.4-0.3,3-0.6,4.4-1c1.1,2.9,2.4,5.2,4.1,6.8C320.3,52,317.3,49.9,315.1,47.1z"/>
		</g>
		<path class="st0" d="M286.4,56.3c0,3.6,2.9,6.3,6.3,6.3h40.1c3.6,0,6.3-2.9,6.3-6.3c0-3.6-2.9-6.3-6.3-6.3h-1.4
			c0-4.6-3.6-8.4-8.4-8.4c-1.7,0-3.3,0.5-4.6,1.3c-2.4-3.8-6.7-6.5-11.6-6.5c-7.5,0-13.5,6-13.5,13.5h-0.6
			C289.2,49.9,286.4,52.8,286.4,56.3z"/>
	</g>
	<g>
		<path class="st53" d="M316.6,49.5h-0.6v-1.2c0-2.1-1.7-3.9-3.9-3.9c-2.1,0-3.9,1.7-3.9,3.9v1.2h-0.6c-0.4,0-0.7,0.3-0.7,0.7v6
			c0,1.2,1,2.2,2.2,2.2h6c1.2,0,2.2-1,2.2-2.2v-6C317.3,49.9,317.1,49.5,316.6,49.5z M309.7,48.3c0-1.4,1.1-2.4,2.4-2.4
			c1.4,0,2.4,1.1,2.4,2.4v1.2h-4.9v-1.2H309.7z"/>
		<path class="st54" d="M313.6,52.6c0-0.7-0.6-1.4-1.4-1.4c-0.7,0-1.4,0.6-1.4,1.4c0,0.6,0.3,1,0.8,1.2v2.4c0,0.3,0.3,0.6,0.6,0.6
			c0.3,0,0.6-0.3,0.6-0.6v-2.4C313.2,53.7,313.6,53.1,313.6,52.6z"/>
	</g>
</g>
<g>
	<g>
		<path class="st24" d="M-23.9-21.1h-38.7v-31.4c0-1.7,1.4-3.2,3.2-3.2h9.7l3,5.4h19.8c1.7,0,3.2,1.4,3.2,3.2v26H-23.9z"/>
		<path class="st55" d="M-20.9-21.1h-38.7v-26.1c0-1.7,1.4-3.2,3.2-3.2h9.7l3,5.4h19.8c1.7,0,3.2,1.4,3.2,3.2v20.6H-20.9z"/>
	</g>
	<path class="st54" d="M-38.3-34.7v-1c0-1.9-1.6-3.4-3.4-3.4c-1.9,0-3.4,1.6-3.4,3.4v1.1h-0.3v5.7h7.7v-5.7h-0.6V-34.7z M-43.7-35.7
		c0-1,0.9-1.9,1.9-1.9c1,0,1.9,0.9,1.9,1.9v1.1h-3.9v-1.1H-43.7z"/>
</g>
<g>
	<circle class="st56" cx="-64.8" cy="36.8" r="24.1"/>
	<g>
		<circle class="st0" cx="-65.1" cy="36.8" r="15.9"/>
		<g>
			<defs>
				<circle id="SVGID_7_" cx="-65.1" cy="36.8" r="15.9"/>
			</defs>
			<clipPath id="SVGID_8_">
				<use xlink:href="#SVGID_7_"  style="overflow:visible;"/>
			</clipPath>
			<path class="st57" d="M-58.9,33.2c0,3.4-2.8,6.1-6.1,6.1c-3.4,0-6.1-2.8-6.1-6.1s2.8-6.1,6.1-6.1C-61.7,27-58.9,29.8-58.9,33.2z
				 M-55.8,58.9V48.2c0-4.1-3.3-7.4-7.4-7.4H-67c-4.1,0-7.4,3.3-7.4,7.4v10.7c0,1.1,0.9,2,2,2h14.5C-56.7,60.9-55.8,60-55.8,58.9z"
				/>
		</g>
	</g>
	<g>
		<path class="st1" d="M-86.2,29.3c-4.6,0-8.3-3.7-8.3-8.3c0-4.6,3.7-8.3,8.3-8.3c4.6,0,8.3,3.7,8.3,8.3
			C-77.9,25.6-81.6,29.3-86.2,29.3z"/>
		<g>
			<path class="st54" d="M-86.2,13.1c4.3,0,7.8,3.5,7.8,7.8c0,4.3-3.5,7.8-7.8,7.8s-7.8-3.5-7.8-7.8C-94.1,16.7-90.6,13.1-86.2,13.1
				 M-86.2,12.1c-4.9,0-8.8,4-8.8,8.8c0,4.9,4,8.8,8.8,8.8c4.9,0,8.8-4,8.8-8.8C-77.4,16.1-81.3,12.1-86.2,12.1L-86.2,12.1z"/>
		</g>
	</g>
	<g>
		<path class="st8" d="M-43.8,29.3c-4.6,0-8.3-3.7-8.3-8.3c0-4.6,3.7-8.3,8.3-8.3c4.6,0,8.3,3.7,8.3,8.3
			C-35.5,25.6-39.2,29.3-43.8,29.3z"/>
		<g>
			<path class="st54" d="M-43.8,13.1c4.3,0,7.8,3.5,7.8,7.8c0,4.3-3.5,7.8-7.8,7.8c-4.3,0-7.8-3.5-7.8-7.8
				C-51.7,16.7-48.2,13.1-43.8,13.1 M-43.8,12.1c-4.9,0-8.8,4-8.8,8.8c0,4.9,4,8.8,8.8,8.8s8.8-4,8.8-8.8
				C-35,16.1-38.9,12.1-43.8,12.1L-43.8,12.1z"/>
		</g>
	</g>
	<g>
		<path class="st54" d="M-85.7,16.8v3.9h3.8v1h-3.8v3.9h-1.1v-3.9h-3.8v-1h3.8v-3.9H-85.7z"/>
	</g>
	<polyline class="st58" points="-48.6,22.1 -45.8,24.5 -39.6,18.1 	"/>
	<g>
		<path class="st37" d="M-64.8,72c-4.6,0-8.3-3.7-8.3-8.3c0-4.6,3.7-8.3,8.3-8.3s8.3,3.7,8.3,8.3C-56.4,68.2-60.2,72-64.8,72z"/>
		<g>
			<path class="st54" d="M-64.8,55.8c4.3,0,7.8,3.5,7.8,7.8c0,4.3-3.5,7.8-7.8,7.8s-7.8-3.5-7.8-7.8C-72.6,59.3-69.1,55.8-64.8,55.8
				 M-64.8,54.8c-4.9,0-8.8,4-8.8,8.8s4,8.8,8.8,8.8c4.9,0,8.8-4,8.8-8.8S-59.9,54.8-64.8,54.8L-64.8,54.8z"/>
		</g>
	</g>
	<g>
		<path class="st54" d="M-61.3,61.1l-2.8,2.8l2.7,2.7l-0.7,0.7l-2.7-2.7l-2.8,2.8l-0.8-0.8l2.8-2.8l-2.7-2.7l0.7-0.7l2.7,2.7
			l2.8-2.8L-61.3,61.1z"/>
	</g>
</g>
<g>
	<g>
		<path class="st42" d="M318.8-4.7c-2,0-3.6-1.6-3.6-3.6v-8.4c0-0.9,0.6-1.5,1.5-1.5h0.3v-1.3c0-3.3,2.7-6,6-6s6,2.7,6,6v1.3h0.3
			c0.6,0,1.2,0.4,1.6,1.3l0.1,0.1v8.5c0,2-1.6,3.6-3.6,3.6H318.8z M325.6-18.2v-1.3c0-1.4-1.1-2.8-2.8-2.8c-1.4,0-2.8,1.1-2.8,2.8
			v0.5h-0.2v0.8H325.6z"/>
		<path class="st54" d="M322.9-25c3.1,0,5.5,2.5,5.5,5.5v1.8h0.8c0.6,0,1,0.6,1.2,1v8.4c0,1.8-1.4,3.1-3.1,3.1h-8.4
			c-1.8,0-3.1-1.4-3.1-3.1v-8.4c0-0.6,0.4-1,1-1h0.8v-1.8C317.5-22.6,320-25,322.9-25 M319.2-17.7h6.8v-1.8c0-1.8-1.4-3.3-3.3-3.3
			c-1.8,0-3.3,1.4-3.3,3.3h-0.2V-17.7 M322.9-26c-3.6,0-6.5,2.9-6.5,6.5v0.8c-1,0.1-1.8,0.9-1.8,2v8.4c0,2.3,1.8,4.1,4.1,4.1h8.4
			c2.3,0,4.1-1.8,4.1-4.1v-8.4V-17l-0.1-0.2c-0.5-0.9-1.1-1.4-1.9-1.5v-0.8C329.4-23.1,326.5-26,322.9-26L322.9-26z M320.4-18.7
			v-0.8c0-1.5,1.2-2.3,2.3-2.3c1.5,0,2.3,1.2,2.3,2.3v0.8H320.4L320.4-18.7z"/>
	</g>
	<path class="st54" d="M324.9-13.4c0-1-0.8-2-2-2c-1,0-2,0.8-2,2c0,0.8,0.4,1.4,1.2,1.8v3.3c0,0.4,0.4,0.8,0.8,0.8
		c0.4,0,0.8-0.4,0.8-0.8v-3.3C324.3-11.9,324.9-12.7,324.9-13.4z"/>
</g>
</svg>
