<?xml version="1.0" encoding="utf-8"?>
<!-- Generator: Adobe Illustrator 26.0.2, SVG Export Plug-In . SVG Version: 6.00 Build 0)  -->
<svg version="1.1" id="Layer_1" xmlns="http://www.w3.org/2000/svg" xmlns:xlink="http://www.w3.org/1999/xlink" x="0px" y="0px"
	 viewBox="0 0 1399.5 298.3" style="enable-background:new 0 0 1399.5 298.3;" xml:space="preserve">
<style type="text/css">
	.st0{fill:#30303B;}
	.st1{fill:#1C81CE;}
	.st2{fill:#110B79;}
</style>
<g>
	<g>
		<path class="st0" d="M368,217.5c7.8,0,14.1-0.9,19-2.6c9.2-3.3,13.9-9.4,13.9-18.4c0-5.2-2.3-9.3-6.9-12.1
			c-4.6-2.8-11.8-5.3-21.6-7.4l-16.8-3.8c-16.5-3.7-27.9-7.8-34.2-12.1c-10.7-7.3-16-18.7-16-34.3c0-14.2,5.2-26,15.5-35.3
			c10.3-9.4,25.5-14.1,45.4-14.1c16.7,0,30.9,4.4,42.7,13.3c11.8,8.8,18,21.7,18.5,38.5h-31.8c-0.6-9.5-4.7-16.3-12.5-20.3
			c-5.2-2.6-11.6-4-19.2-4c-8.5,0-15.3,1.7-20.4,5.2c-5.1,3.4-7.6,8.2-7.6,14.4c0,5.7,2.5,9.9,7.5,12.7c3.2,1.9,10.1,4,20.6,6.6
			l27.3,6.6c12,2.9,21,6.7,27.1,11.5c9.5,7.5,14.2,18.2,14.2,32.3c0,14.5-5.5,26.5-16.6,36c-11.1,9.6-26.7,14.3-46.9,14.3
			c-20.6,0-36.9-4.7-48.7-14.1c-11.8-9.4-17.7-22.4-17.7-38.8h31.6c1,7.2,3,12.6,5.9,16.2C345.7,214.2,354.9,217.5,368,217.5z"/>
		<path class="st0" d="M602.5,82h33.6l-44.6,158.4H560l-19.1-92.6l-5.6-30.6l-5.6,30.6l-19.1,92.6h-30.7L434.9,82H470l21,90.7
			l4.5,25.2l4.6-24.7L518,82h34.9l18.8,90.7l4.8,25.2l4.8-24.3L602.5,82z"/>
		<path class="st0" d="M644.7,82h32.9v158.4h-32.9V82z"/>
		<path class="st0" d="M827.7,240.4h-33.1L730,127.9v112.5h-30.8V82h34.7l63.1,110.6V82h30.8V240.4z"/>
		<path class="st0" d="M946.9,236.5c-8.7,5.4-19.5,8.1-32.2,8.1c-21,0-38.2-7.3-51.6-21.8c-14-14.6-21-34.6-21-60
			c0-25.6,7.1-46.2,21.2-61.7c14.1-15.5,32.8-23.2,56-23.2c20.1,0,36.3,5.1,48.5,15.3c12.2,10.2,19.2,22.9,21,38.2h-32.6
			c-2.5-10.8-8.6-18.4-18.4-22.7c-5.4-2.4-11.5-3.5-18.2-3.5c-12.8,0-23.2,4.8-31.4,14.5c-8.2,9.6-12.3,24.1-12.3,43.5
			c0,19.5,4.4,33.3,13.3,41.4c8.9,8.1,19,12.1,30.3,12.1c11.1,0,20.2-3.2,27.3-9.6c7.1-6.4,11.5-14.8,13.1-25.2h-36.6v-26.4h66v85
			h-21.9l-3.3-19.8C957.7,228.1,952,233.4,946.9,236.5z"/>
		<path class="st0" d="M1069.6,217.5c7.8,0,14.1-0.9,19-2.6c9.2-3.3,13.9-9.4,13.9-18.4c0-5.2-2.3-9.3-6.9-12.1
			c-4.6-2.8-11.8-5.3-21.6-7.4l-16.8-3.8c-16.5-3.7-27.9-7.8-34.2-12.1c-10.7-7.3-16-18.7-16-34.3c0-14.2,5.2-26,15.5-35.3
			c10.3-9.4,25.5-14.1,45.4-14.1c16.7,0,30.9,4.4,42.7,13.3c11.8,8.8,18,21.7,18.5,38.5h-31.8c-0.6-9.5-4.7-16.3-12.5-20.3
			c-5.2-2.6-11.6-4-19.2-4c-8.5,0-15.3,1.7-20.4,5.2c-5.1,3.4-7.6,8.2-7.6,14.4c0,5.7,2.5,9.9,7.5,12.7c3.2,1.9,10.1,4,20.6,6.6
			l27.3,6.6c12,2.9,21,6.7,27.1,11.5c9.5,7.5,14.2,18.2,14.2,32.3c0,14.5-5.5,26.5-16.6,36s-26.7,14.3-46.9,14.3
			c-20.6,0-36.9-4.7-48.7-14.1c-11.8-9.4-17.7-22.4-17.7-38.8h31.6c1,7.2,3,12.6,5.9,16.2C1047.4,214.2,1056.6,217.5,1069.6,217.5z"
			/>
	</g>
	<g>
		<path class="st1" d="M1177.4,244c-18,0-26.3-12.2-26.3-33.8v-92.4c0-21.5,8.4-33.8,26.3-33.8s26.3,12,26.3,33.8v8.9h-8.9v-8.9
			c0-15.8-4.8-25.1-17.5-25.1s-17.5,9.3-17.5,25.1v92.4c0,15.8,4.8,25.1,17.5,25.1s17.5-9.3,17.5-25.1v-8.9h8.9v8.9
			C1203.8,232,1195.4,244,1177.4,244z"/>
		<path class="st1" d="M1259.1,242.1v-48.8c0-14.1-6.2-23.9-19.6-23.9h-12.9v72.8h-8.9V86h22.3c18.9,0,28,10.8,28,31.8v19.6
			c0,14.6-6.7,23.9-15.1,27.5c8.4,3.6,15.1,12,15.1,26.6v50.5H1259.1z M1259.1,118.3c0-15.8-6.7-23.9-19.6-23.9h-12.9v66.6h12.9
			c13.4,0,19.6-9.8,19.6-23.9V118.3z"/>
		<path class="st1" d="M1355.5,242.1V120.9c0-8.6,1.2-21.5,1.2-21.5l-27.5,142.7h-11l-27.5-142.7c0,0,1.2,13.2,1.2,21.5v121.1h-8.6
			V86h13.2l24.2,128.1c1.2,6.7,3.1,18.4,3.1,18.4s1.7-11.5,3.1-18.4L1351,86h13.2v156.1H1355.5z"/>
	</g>
</g>
<g>
	<path class="st2" d="M154,210.4l-74,52.9c-35.9-22.5-59.8-62.4-59.8-107.9c0-70.2,56.9-127.1,127.1-127.1c13.4,0,26.2,2.1,38.3,5.9
		l-49.4,35.3C112,87,108,110,126.3,135.7l32.1,45c8.5,11.8,6.7,22.2-4.3,30L154,210.4z"/>
	<path class="st1" d="M274.5,155.4c0,70.2-56.9,127.1-127.1,127.1c-13.4,0-26.2-2.1-38.3-5.9l65.4-46.8c24.4-17.4,28.4-40.4,10-66.1
		l-32.1-44.9c-8.7-12.2-6.6-22.9,5.4-30.7l0.1,0.1l56.9-40.7C250.6,70,274.5,110,274.5,155.4z"/>
</g>
</svg>
